<svg width="205" height="190" viewBox="0 0 205 190" fill="none" xmlns="http://www.w3.org/2000/svg">
<path d="M71.0736 42.0418C48.4239 23.9127 -3.67244 60.2025 16.6013 101.282C36.8751 142.362 49.4594 110.989 89.8814 147.042C111.724 166.523 134.562 177.616 168.706 117.95C190.587 79.7128 171.409 14.7538 145.285 19.6898C119.162 24.6257 119.2 80.5621 71.0736 42.0418Z" fill="#F1F2F2"/>
<g opacity="0.61">
<g opacity="0.61">
<g opacity="0.61">
<path opacity="0.61" d="M128.219 102.706L131.828 100.938C132.571 100.573 133.472 100.885 133.836 101.628L135.203 104.419C136.292 104.21 137.404 104.141 138.514 104.213L139.524 101.273C139.791 100.49 140.647 100.07 141.43 100.341L145.232 101.643C146.014 101.911 146.434 102.766 146.164 103.549L145.157 106.489C146.077 107.114 146.914 107.852 147.646 108.682L150.437 107.315C151.18 106.951 152.084 107.261 152.446 108.005L154.213 111.614C154.578 112.357 154.267 113.258 153.524 113.623L150.733 114.99C150.941 116.079 151.01 117.19 150.938 118.301L153.878 119.31C154.661 119.578 155.081 120.433 154.811 121.216L153.508 125.018C153.241 125.801 152.385 126.221 151.602 125.95L148.663 124.943C148.038 125.863 147.299 126.7 146.469 127.433L147.836 130.224C148.201 130.967 147.89 131.87 147.146 132.232L143.537 133.999C142.794 134.364 141.894 134.053 141.529 133.31L140.162 130.519C139.073 130.727 137.961 130.797 136.851 130.725L135.844 133.664C135.576 134.447 134.721 134.867 133.938 134.596L130.136 133.294C129.353 133.026 128.934 132.171 129.204 131.388L130.213 128.448C129.294 127.823 128.457 127.087 127.724 126.254L124.936 127.617C124.193 127.982 123.289 127.671 122.927 126.928L121.16 123.319C120.795 122.576 121.106 121.675 121.849 121.31L124.638 119.947C124.432 118.857 124.363 117.746 124.432 116.636L121.492 115.626C120.71 115.359 120.29 114.503 120.56 113.72L121.862 109.919C122.133 109.135 122.986 108.719 123.769 108.986L126.708 109.993C127.333 109.073 128.072 108.236 128.902 107.504L127.535 104.713C127.167 103.97 127.476 103.07 128.219 102.706ZM138.99 104.936L138.724 104.914C137.501 104.812 136.276 104.886 135.082 105.14L134.823 105.195L133.224 101.928C133.024 101.522 132.535 101.353 132.129 101.553L128.52 103.321C128.113 103.52 127.945 104.01 128.145 104.416L129.743 107.683L129.54 107.854C128.609 108.641 127.796 109.561 127.126 110.59L126.98 110.813L123.539 109.635C123.113 109.489 122.644 109.716 122.499 110.145L121.197 113.947C121.051 114.373 121.278 114.841 121.707 114.986L125.149 116.168L125.126 116.434C125.024 117.656 125.098 118.881 125.352 120.076L125.407 120.335L122.143 121.933C121.737 122.132 121.568 122.622 121.768 123.028L123.536 126.637C123.735 127.043 124.225 127.212 124.631 127.012L127.895 125.414L128.066 125.618C128.854 126.551 129.773 127.361 130.802 128.029L131.025 128.175L129.844 131.617C129.698 132.043 129.925 132.511 130.354 132.656L134.155 133.959C134.582 134.105 135.047 133.878 135.195 133.449L136.374 130.007L136.64 130.03C137.862 130.132 139.087 130.058 140.282 129.804L140.541 129.749L142.139 133.016C142.339 133.422 142.828 133.59 143.235 133.391L146.844 131.623C147.25 131.423 147.418 130.934 147.219 130.528L145.62 127.26L145.824 127.09C146.754 126.302 147.567 125.383 148.235 124.354L148.381 124.131L151.822 125.309C152.248 125.455 152.716 125.228 152.862 124.799L154.164 120.998C154.31 120.571 154.083 120.103 153.654 119.958L150.212 118.777L150.235 118.511C150.337 117.288 150.262 116.063 150.009 114.869L149.953 114.609L153.221 113.011C153.627 112.811 153.795 112.322 153.596 111.916L151.828 108.306C151.628 107.9 151.139 107.732 150.732 107.932L147.465 109.53L147.292 109.327C146.504 108.396 145.584 107.583 144.556 106.916L144.333 106.77L145.511 103.329C145.657 102.903 145.43 102.434 145.001 102.289L141.2 100.987C140.773 100.841 140.305 101.068 140.16 101.497L138.99 104.936ZM133.506 108.94C138.209 106.64 143.908 108.593 146.209 113.296C148.509 117.999 146.556 123.698 141.853 125.998C137.15 128.299 131.451 126.346 129.148 121.643C126.85 116.94 128.803 111.241 133.506 108.94ZM141.556 125.385C145.922 123.25 147.735 117.962 145.599 113.595C143.464 109.229 138.175 107.417 133.809 109.552C129.443 111.687 127.631 116.976 129.766 121.342C131.901 125.708 137.19 127.521 141.556 125.385Z" fill="white"/>
</g>
</g>
<g opacity="0.61">
<g opacity="0.61">
<path opacity="0.61" d="M48.7317 88.8603L52.3409 87.0927C53.0839 86.7278 53.9844 87.0393 54.3492 87.7823L55.7134 90.5739C56.8024 90.3653 57.9138 90.2961 59.0244 90.3681L60.0338 87.4282C60.3015 86.6454 61.1568 86.2255 61.9402 86.4959L65.7416 87.7983C66.5245 88.0659 66.9444 88.9212 66.6739 89.7047L65.6673 92.644C66.5871 93.2688 67.4241 94.0074 68.1563 94.8377L70.9474 93.4708C71.6904 93.1059 72.5937 93.4167 72.9557 94.1604L74.7233 97.7695C75.0882 98.5125 74.7767 99.413 74.0337 99.7778L71.2427 101.145C71.4513 102.234 71.5205 103.345 71.4484 104.456L74.3883 105.465C75.1712 105.733 75.5911 106.588 75.3206 107.372L74.0183 111.173C73.7507 111.956 72.8954 112.376 72.1119 112.105L69.1726 111.099C68.5477 112.019 67.8092 112.856 66.9788 113.588L68.3458 116.379C68.7107 117.122 68.3998 118.025 67.6562 118.387L64.0471 120.155C63.3041 120.52 62.4036 120.208 62.0387 119.465L60.6718 116.674C59.5827 116.883 58.4713 116.952 57.3607 116.88L56.3541 119.819C56.0865 120.602 55.2311 121.022 54.4477 120.751L50.6464 119.449C49.8635 119.182 49.4436 118.326 49.714 117.543L50.7235 114.603C49.8037 113.978 48.9672 113.242 48.2345 112.409L45.4457 113.773C44.7026 114.138 43.7993 113.827 43.4373 113.083L41.6697 109.474C41.3049 108.731 41.6163 107.83 42.3593 107.466L45.1481 106.102C44.9423 105.012 44.8731 103.901 44.9424 102.791L42.0025 101.782C41.2196 101.514 40.7997 100.659 41.0701 99.8752L42.3725 96.0738C42.6429 95.2904 43.496 94.8739 44.2789 95.1415L47.2182 96.1481C47.843 95.2283 48.5816 94.3913 49.4119 93.6591L48.045 90.8681C47.6801 90.125 47.9881 89.2223 48.7317 88.8603ZM59.5022 91.0883L59.2361 91.0658C58.0136 90.9635 56.7887 91.038 55.5941 91.2915L55.335 91.3469L53.7365 88.0796C53.5368 87.6734 53.0472 87.5051 52.641 87.7048L49.0319 89.4724C48.6257 89.6722 48.4574 90.1617 48.6571 90.5679L50.2556 93.8351L50.0521 94.0056C49.1214 94.7933 48.3084 95.713 47.6381 96.7419L47.4923 96.9654L44.051 95.7871C43.6248 95.6412 43.1565 95.8682 43.0112 96.2972L41.7089 100.099C41.563 100.525 41.79 100.993 42.219 101.138L45.6609 102.319L45.6383 102.586C45.536 103.808 45.6105 105.033 45.864 106.228L45.9194 106.487L42.655 108.085C42.2488 108.284 42.0804 108.774 42.2802 109.18L44.0478 112.789C44.2475 113.195 44.737 113.364 45.1432 113.164L48.4076 111.566L48.5781 111.77C49.3664 112.703 50.2855 113.513 51.3139 114.181L51.5373 114.327L50.3562 117.768C50.2103 118.195 50.4373 118.663 50.8663 118.808L54.6677 120.11C55.0939 120.256 55.5593 120.03 55.7075 119.6L56.8858 116.159L57.1518 116.182C58.3743 116.284 59.5993 116.209 60.7938 115.956L61.053 115.901L62.6514 119.168C62.8512 119.574 63.3407 119.742 63.7469 119.543L67.356 117.775C67.7622 117.575 67.9306 117.086 67.7308 116.68L66.1323 113.412L66.3359 113.242C67.2666 112.454 68.0795 111.534 68.7471 110.506L68.8928 110.283L72.3341 111.461C72.7603 111.607 73.2286 111.38 73.3739 110.951L74.6762 107.149C74.8221 106.723 74.5951 106.255 74.1661 106.11L70.7243 104.929L70.7468 104.662C70.8491 103.44 70.7746 102.215 70.5211 101.02L70.4657 100.761L73.733 99.1629C74.1392 98.9631 74.3075 98.4736 74.1078 98.0674L72.3402 94.4583C72.1404 94.0521 71.6509 93.8837 71.2447 94.0835L67.9775 95.682L67.807 95.4785C67.0193 94.5477 66.0996 93.7348 65.0712 93.0672L64.8478 92.9215L66.0261 89.4802C66.172 89.054 65.945 88.5857 65.516 88.4404L61.7146 87.1381C61.2884 86.9922 60.8202 87.2192 60.6748 87.6482L59.5022 91.0883ZM54.0184 95.0923C58.7215 92.7919 64.4204 94.7445 66.7208 99.4476C69.0213 104.151 67.0686 109.85 62.3656 112.15C57.6625 114.45 51.9636 112.498 49.6603 107.795C47.3571 103.093 49.3153 97.3927 54.0184 95.0923ZM62.0654 111.538C66.4316 109.403 68.244 104.114 66.1087 99.7478C63.9734 95.3815 58.6849 93.5692 54.3186 95.7045C49.9523 97.8398 48.14 103.128 50.2753 107.495C52.4134 111.86 57.7025 113.675 62.0654 111.538Z" fill="white"/>
</g>
</g>
<g opacity="0.61">
<path opacity="0.61" d="M128.995 91.4504L130.906 91.5307C131.052 92.2387 131.303 92.9108 131.64 93.5302L130.23 94.8263C129.962 95.0714 129.944 95.4895 130.192 95.7566L131.74 97.4357C131.985 97.7034 132.403 97.7217 132.67 97.4737L134.08 96.1776C134.669 96.5637 135.318 96.8673 136.009 97.0741L135.929 98.9856C135.915 99.35 136.197 99.6572 136.561 99.6716L138.843 99.7653C139.207 99.7797 139.514 99.4972 139.529 99.1328L139.609 97.2213C140.317 97.0751 140.989 96.8245 141.609 96.4876L142.905 97.8972C143.15 98.165 143.568 98.1832 143.835 97.9352L145.515 96.3906C145.783 96.1454 145.801 95.7274 145.553 95.4603L144.257 94.0506C144.643 93.4612 144.946 92.8121 145.153 92.118L147.064 92.1984C147.429 92.2128 147.736 91.9303 147.75 91.566L147.844 89.2845C147.858 88.9201 147.576 88.6129 147.211 88.5985L145.3 88.5181C145.154 87.8102 144.903 87.1381 144.566 86.5186L145.976 85.2226C146.244 84.9774 146.262 84.5594 146.014 84.2922L144.466 82.6132C144.221 82.3454 143.803 82.3272 143.536 82.5752L142.126 83.8712C141.537 83.4851 140.888 83.1816 140.197 82.9747L140.277 81.0632C140.291 80.6989 140.009 80.3917 139.645 80.3773L137.363 80.2836C136.999 80.2692 136.692 80.5517 136.677 80.9161L136.597 82.8276C135.889 82.9738 135.217 83.2244 134.597 83.5613L133.301 82.1516C133.056 81.8839 132.638 81.8656 132.371 82.1136L130.691 83.6583C130.423 83.9034 130.405 84.3214 130.653 84.5886L131.949 85.9983C131.563 86.5877 131.26 87.2368 131.053 87.9308L129.142 87.8504C128.777 87.836 128.47 88.1186 128.456 88.4829L128.362 90.7644C128.348 91.1287 128.63 91.4359 128.995 91.4504ZM138.315 84.8305C141.184 84.9494 143.416 87.3713 143.298 90.2397C143.179 93.1081 140.757 95.3407 137.888 95.2218C135.02 95.1029 132.787 92.681 132.906 89.8125C133.025 86.9413 135.447 84.7116 138.315 84.8305Z" fill="white"/>
</g>
</g>
<path d="M122.67 127.67L94.8402 146.983C92.5191 148.596 89.3288 148.019 87.7155 145.695L46.5432 86.3647C44.9304 84.0436 45.5072 80.8533 47.8312 79.24L75.6605 59.9274C77.9816 58.3147 81.1719 58.8915 82.7852 61.2154L123.957 120.543C125.567 122.867 124.991 126.058 122.67 127.67Z" fill="#292930"/>
<path d="M118.405 126.097L94.7031 142.544C92.3819 144.157 89.1917 143.58 87.5784 141.256L49.9511 87.0296C48.3383 84.7085 48.9151 81.5183 51.2391 79.905L74.941 63.458C77.2621 61.8453 80.4524 62.4221 82.0657 64.746L119.696 118.975C121.303 121.297 120.726 124.485 118.405 126.097Z" fill="white"/>
<path d="M117.335 124.554L93.6327 141.001C91.3115 142.614 88.1921 142.14 86.67 139.948L51.1218 88.7205C49.5998 86.5279 50.2474 83.4409 52.5691 81.831L76.271 65.384C78.5921 63.7713 81.7115 64.2448 83.2336 66.4374L118.782 117.665C120.307 119.857 119.656 122.944 117.335 124.554Z" fill="#C0E4FF"/>
<path d="M72.7413 69.8092L58.6707 79.5734C57.7718 80.199 56.536 79.9731 55.9104 79.0742L54.6436 77.3295L71.9446 65.1897L73.2405 67.0489C73.8639 67.9512 73.6407 69.1864 72.7413 69.8092Z" fill="#292930"/>
<path d="M59.847 77.1817C59.4574 77.2606 59.0386 77.1073 58.7977 76.7594C58.4741 76.293 58.5913 75.6522 59.0549 75.3292C59.5212 75.0057 60.162 75.1228 60.4856 75.5892C60.8091 76.0556 60.692 76.6963 60.2256 77.0199C60.11 77.1021 59.9796 77.1549 59.847 77.1817ZM59.4934 75.4491C59.3975 75.4685 59.3055 75.5077 59.2203 75.5661C58.8853 75.7984 58.8028 76.2618 59.0351 76.5967C59.2675 76.9317 59.7308 77.0142 60.0658 76.7819C60.4008 76.5496 60.4833 76.0862 60.251 75.7513C60.0776 75.5043 59.7757 75.392 59.4934 75.4491Z" fill="white"/>
<path d="M62.5577 74.9965C62.2528 75.0582 61.9232 74.9398 61.7357 74.6663C61.615 74.4909 61.5687 74.2769 61.605 74.0639C61.644 73.8503 61.7628 73.6676 61.9376 73.5441L68.6754 68.8691C68.8508 68.7484 69.0648 68.7022 69.2778 68.7384C69.4914 68.7774 69.6741 68.8962 69.7976 69.071C70.0509 69.437 69.9588 69.9405 69.5957 70.1932L62.8578 74.8682C62.7654 74.9339 62.6621 74.9754 62.5577 74.9965ZM69.0299 69.0236C68.9622 69.0373 68.8973 69.0651 68.8381 69.1065L62.1002 73.7815C61.8656 73.9436 61.8076 74.2668 61.9697 74.5014C62.1318 74.736 62.455 74.794 62.6896 74.6319L69.4274 69.9569C69.662 69.7949 69.72 69.4716 69.5579 69.237C69.4792 69.1237 69.3609 69.0477 69.2236 69.0226C69.1598 69.012 69.092 69.011 69.0299 69.0236Z" fill="white"/>
<path opacity="0.18" d="M84.2536 67.9057L62.6853 105.38L67.6306 112.51L88.0492 73.3758L84.2536 67.9057Z" fill="white"/>
<path opacity="0.1" d="M90.9184 77.6083L72.6407 119.829L77.5883 126.955L94.8755 83.3102L90.9184 77.6083Z" fill="white"/>
<path d="M108.143 56.8554C108.878 49.6457 103.698 43.2119 96.5719 42.4849C89.4461 41.758 83.0732 47.0134 82.3378 54.2231C81.6023 61.4327 86.7827 67.8666 93.9085 68.5935C101.034 69.3204 107.407 64.0651 108.143 56.8554Z" fill="#3A93FB"/>
<path d="M107.16 55.4539C107.897 48.2447 102.717 41.8106 95.5921 41.0829C88.4669 40.3551 82.0938 45.6093 81.3575 52.8184C80.6212 60.0276 85.8004 66.4617 92.9257 67.1894C100.051 67.9172 106.424 62.663 107.16 55.4539Z" fill="#3865A7"/>
<path opacity="0.93" d="M104.174 55.1503C104.739 49.609 100.758 44.664 95.282 44.1052C89.8057 43.5464 84.9079 47.5854 84.3424 53.1266C83.777 58.6679 87.7581 63.6129 93.2344 64.1717C98.7108 64.7305 103.609 60.6915 104.174 55.1503Z" fill="white"/>
<path d="M94.3323 53.4135C94.065 53.3853 93.873 53.148 93.9018 52.8836L94.4985 47.033C94.5267 46.7658 94.7641 46.5738 95.0285 46.6025C95.2957 46.6307 95.4877 46.8681 95.4589 47.1325L94.8622 52.9831C94.8334 53.2475 94.5961 53.4395 94.3323 53.4135Z" fill="#9FBFFF"/>
<path d="M94.2683 54.3021C94.2965 54.0349 94.5339 53.8429 94.7983 53.8717L99.3077 54.3314C99.5749 54.3596 99.7669 54.5969 99.7381 54.8613C99.7099 55.1285 99.4726 55.3206 99.2082 55.2918L94.6988 54.8321C94.435 54.8061 94.2429 54.5688 94.2683 54.3021Z" fill="#9FBFFF"/>
<path d="M95.7007 54.2824C95.6173 55.0897 94.9047 55.6776 94.1092 55.5947C93.3109 55.5124 92.7338 54.7947 92.8144 53.9879C92.895 53.1812 93.6105 52.5927 94.4059 52.6756C95.2036 52.7552 95.7813 53.4757 95.7007 54.2824Z" fill="#1B1B25"/>
<path d="M125.25 116.914L99.6392 113.458C97.277 113.139 95.6177 110.966 95.9383 108.6L104.23 47.1469C104.548 44.7847 106.722 43.1254 109.087 43.4459L134.698 46.9022C137.061 47.2204 138.72 49.394 138.399 51.7596L130.105 113.213C129.787 115.576 127.613 117.235 125.25 116.914Z" fill="#101011"/>
<path d="M124.625 115.874L100.519 112.621C98.2959 112.322 96.7423 110.206 97.0545 107.901L105.151 47.8949C105.463 45.5869 107.52 43.9601 109.743 44.2595L133.849 47.5118C136.072 47.8112 137.626 49.9269 137.314 52.232L129.217 112.238C128.905 114.546 126.849 116.176 124.625 115.874Z" fill="#282830"/>
<path d="M105.692 51.7057L98.4969 105.035L128.633 109.1L135.828 55.7716L105.692 51.7057Z" fill="white"/>
<path opacity="0.89" d="M121.61 48.5371C121.553 48.5485 121.495 48.5515 121.437 48.5426C121.301 48.5231 121.179 48.4539 121.094 48.3417C121.01 48.2323 120.974 48.0957 120.993 47.9567C121.012 47.8206 121.081 47.6978 121.194 47.6134C121.303 47.5296 121.44 47.4931 121.579 47.512C121.718 47.5309 121.837 47.6007 121.922 47.7129C122.006 47.8223 122.042 47.9589 122.023 48.0979C122.004 48.2368 121.935 48.3567 121.822 48.4412C121.759 48.4893 121.686 48.5217 121.61 48.5371ZM121.461 47.8003C121.427 47.8072 121.395 47.8225 121.366 47.8429C121.318 47.8792 121.285 47.9357 121.277 47.9962C121.269 48.0566 121.284 48.1182 121.323 48.1661C121.359 48.2146 121.416 48.2472 121.476 48.2556C121.537 48.2639 121.598 48.2485 121.646 48.2094C121.695 48.1732 121.727 48.1166 121.736 48.0562C121.744 47.9957 121.729 47.9342 121.69 47.8862C121.653 47.8378 121.597 47.8051 121.536 47.7968C121.513 47.7957 121.486 47.7952 121.461 47.8003Z" fill="white"/>
<path opacity="0.89" d="M124.184 50.6606C124.142 50.6692 124.099 50.6721 124.053 50.6637L118.347 49.8938C118.132 49.8638 117.98 49.6654 118.01 49.4507C118.024 49.345 118.079 49.2545 118.163 49.1905C118.247 49.1265 118.35 49.0997 118.453 49.1142L124.16 49.884C124.265 49.8979 124.356 49.9531 124.42 50.0371C124.484 50.1211 124.511 50.2244 124.497 50.3301C124.474 50.4962 124.345 50.6281 124.184 50.6606ZM124.092 50.3795C124.15 50.3885 124.203 50.3454 124.212 50.2878C124.215 50.2607 124.21 50.2324 124.19 50.2099C124.174 50.1868 124.147 50.1716 124.12 50.1682L118.414 49.3983C118.387 49.395 118.358 49.4007 118.336 49.42C118.313 49.4364 118.298 49.463 118.294 49.4901C118.285 49.5477 118.328 49.6007 118.386 49.6097L124.092 50.3795Z" fill="white"/>
<g opacity="0.41">
<g opacity="0.41">
<g opacity="0.81">
<path opacity="0.81" d="M107.363 53.4074L100.636 103.266L127.587 106.902L134.314 57.0435L107.363 53.4074Z" fill="#9FBFFF"/>
</g>
</g>
</g>
<path d="M116.247 112.633C116.12 112.658 115.989 112.661 115.856 112.644L109.829 111.83C109.186 111.743 108.734 111.15 108.821 110.507L108.835 110.401C108.877 110.09 109.039 109.813 109.288 109.622C109.537 109.43 109.847 109.35 110.159 109.393L116.185 110.206C116.829 110.294 117.281 110.887 117.194 111.53L117.18 111.636C117.137 111.947 116.976 112.224 116.726 112.415C116.584 112.523 116.419 112.598 116.247 112.633ZM109.105 110.546C109.039 111.032 109.382 111.48 109.869 111.546L115.895 112.36C116.382 112.426 116.83 112.083 116.896 111.596L116.909 111.491C116.976 111.004 116.632 110.557 116.146 110.491L110.119 109.677C109.884 109.645 109.649 109.707 109.461 109.851C109.273 109.995 109.151 110.205 109.119 110.44L109.105 110.546Z" fill="white"/>
<path opacity="0.18" d="M105.027 56.647L133.493 73.1067L132.304 81.9155L104.064 62.7334L105.027 56.647Z" fill="white"/>
<path opacity="0.18" d="M103.5 67.7721L131.965 84.2318L130.777 93.0406L103.165 69.8938L103.5 67.7721Z" fill="white"/>
<path d="M62.4407 64.356L55.2465 66.5287C53.718 66.9908 52.0888 66.1129 51.6255 64.5787L49.6423 58.0161C49.179 56.482 50.0502 54.8483 51.5787 54.3862L58.7729 52.2134C60.3014 51.7513 61.9306 52.6293 62.3938 54.1634L64.3771 60.726C64.8403 62.2601 63.9691 63.8939 62.4407 64.356Z" fill="#AA0D0D"/>
<path d="M62.3589 63.3126L55.7212 65.3169C54.3119 65.7431 52.8088 64.9366 52.3825 63.5272L50.5592 57.4935C50.1329 56.0841 50.9395 54.581 52.3488 54.1548L58.9865 52.1504C60.3959 51.7242 61.899 52.5307 62.3253 53.9401L64.1486 59.9738C64.5749 61.3832 63.7683 62.8863 62.3589 63.3126Z" fill="#FE5F5F"/>
<path d="M55.7771 62.5582C55.7516 62.5633 55.7347 62.5668 55.7257 62.5656L55.6432 62.55L55.6153 62.4704C55.2974 61.4946 55.5423 60.4254 56.2359 59.6856C55.6542 59.4537 55.2024 58.978 55.0039 58.3747C54.6439 57.2633 55.2512 56.0679 56.3625 55.7079C56.8998 55.5316 57.4732 55.5772 57.9776 55.8336C58.482 56.09 58.8557 56.5286 59.0292 57.0664C59.2249 57.6704 59.1416 58.319 58.8057 58.8512C59.8024 59.0432 60.6293 59.7604 60.9472 60.7362L60.9722 60.8164L60.9176 60.8803C60.8286 60.9777 56.3219 62.4479 55.7771 62.5582ZM56.664 55.9202C56.5934 55.9344 56.5263 55.951 56.4574 55.9737C55.4979 56.2854 54.9727 57.3202 55.2844 58.2797C55.4767 58.8667 55.9465 59.3152 56.5467 59.4788L56.8016 59.5477L56.6054 59.7254C55.8969 60.3625 55.6099 61.3403 55.856 62.2513C56.5452 62.056 59.9666 60.9435 60.6365 60.6963C60.2995 59.8153 59.4893 59.1948 58.5436 59.0952L58.2797 59.0693L58.4465 58.8622C58.8362 58.3778 58.9534 57.7371 58.7611 57.1501C58.611 56.6839 58.2882 56.3085 57.8522 56.0852C57.4818 55.8957 57.0648 55.839 56.664 55.9202Z" fill="white"/>
<path d="M124.597 129.587L107.412 127.767C107.016 127.724 106.66 128.013 106.617 128.41L106.42 130.257L106.324 131.16L105.381 140.049L105.299 140.821L105.288 140.937C105.245 141.334 105.534 141.69 105.931 141.733L123.115 143.553C123.512 143.597 123.868 143.307 123.911 142.911L123.928 142.763L124.002 142.069L125.023 132.448L125.117 131.548L125.24 130.383C125.282 129.983 124.996 129.627 124.597 129.587Z" fill="white"/>
<path d="M113.273 134.702L115.054 135.891C115.159 135.96 115.294 135.974 115.41 135.924L124.298 131.887L124.969 131.583C125.017 131.562 125.068 131.552 125.12 131.547L125.243 130.382C125.286 129.985 124.997 129.63 124.6 129.587L107.415 127.766C107.019 127.723 106.663 128.012 106.62 128.409L106.423 130.256L106.853 130.536L113.273 134.702Z" fill="#3865A7"/>
<path d="M106.326 131.157L105.384 140.048L112.626 135.251L106.326 131.157Z" fill="#3865A7"/>
<path d="M124.002 142.069L125.023 132.448L117.868 135.698L124.002 142.069Z" fill="#3865A7"/>
<path d="M123.464 142.678L117.084 136.053L115.739 136.663C115.544 136.746 115.336 136.777 115.134 136.756C114.948 136.735 114.765 136.672 114.602 136.564L113.348 135.727C113.326 135.749 113.304 135.772 113.279 135.789L105.716 140.801C105.633 140.856 105.54 140.875 105.45 140.867C105.399 140.862 105.349 140.846 105.302 140.82L105.291 140.937C105.248 141.334 105.537 141.689 105.934 141.732L123.118 143.553C123.515 143.596 123.871 143.307 123.914 142.91L123.931 142.763C123.864 142.794 123.788 142.809 123.715 142.8C123.623 142.793 123.532 142.752 123.464 142.678Z" fill="#3865A7"/>
<path d="M105.119 86.9024L99.4226 90.8555C98.2119 91.697 96.5343 91.393 95.6956 90.1816L92.1029 85.0025C91.2614 83.7918 91.5654 82.1141 92.7768 81.2755L98.4736 77.3224C99.6843 76.4809 101.362 76.7849 102.201 77.9962L105.793 83.1754C106.631 84.3839 106.33 86.0609 105.119 86.9024Z" fill="#AA0D0D"/>
<path d="M104.705 86.2459L99.0077 90.199C97.797 91.0405 96.1193 90.7365 95.2807 89.5251L91.688 84.346C90.8465 83.1353 91.1505 81.4576 92.3618 80.619L98.0586 76.6659C99.2694 75.8244 100.947 76.1284 101.786 77.3397L105.378 82.5189C106.216 83.7274 105.912 85.405 104.705 86.2459Z" fill="#FE5F5F"/>
<path d="M99.0085 85.7736C98.1024 85.957 97.1284 85.6016 96.5685 84.7952C95.8177 83.713 96.086 82.2219 97.171 81.4705C97.6937 81.1061 98.33 80.9685 98.9583 81.0823C99.5867 81.1961 100.134 81.5468 100.496 82.0729C100.86 82.5957 100.998 83.2319 100.884 83.8603C100.77 84.4886 100.419 85.0356 99.8961 85.3971C99.6198 85.5852 99.3162 85.7113 99.0085 85.7736ZM98.1146 81.3706C97.8379 81.4266 97.5727 81.539 97.3331 81.7051C96.3794 82.3652 96.1424 83.6767 96.8054 84.6297C97.4655 85.5834 98.7793 85.817 99.7301 85.1574C100.191 84.8378 100.5 84.3582 100.599 83.8033C100.699 83.2512 100.577 82.694 100.258 82.2327C99.9381 81.7715 99.4585 81.463 98.9064 81.3632C98.638 81.3146 98.3714 81.3186 98.1146 81.3706Z" fill="white"/>
<path d="M141.449 79.0721L131.583 80.1811C129.485 80.4175 127.579 78.8934 127.342 76.7962L126.332 67.827C126.096 65.7298 127.62 63.8229 129.717 63.5866L139.583 62.4775C141.68 62.2412 143.587 63.7652 143.824 65.8624L144.834 74.8317C145.07 76.9289 143.546 78.8357 141.449 79.0721Z" fill="#3A93FB"/>
<path d="M142.412 77.8487L132.546 78.9578C130.448 79.1941 128.542 77.67 128.305 75.5728L127.295 66.6036C127.059 64.5064 128.583 62.5995 130.68 62.3632L140.546 61.2541C142.643 61.0178 144.55 62.5418 144.787 64.639L145.797 73.6083C146.029 75.7032 144.509 77.6124 142.412 77.8487Z" fill="#3865A7"/>
<path d="M137.257 74.7103C137.198 74.7223 137.136 74.7321 137.075 74.7384C136.143 74.836 135.268 74.2579 134.993 73.3644L134.942 73.1985L138.843 72.7852L138.828 72.9587C138.748 73.8298 138.102 74.5395 137.257 74.7103ZM135.33 73.4461C135.615 74.1142 136.31 74.5289 137.047 74.4532C137.783 74.3748 138.377 73.8227 138.515 73.1102L135.33 73.4461Z" fill="white"/>
<path d="M139.827 72.9592C139.767 72.9712 139.71 72.9798 139.65 72.9862L134.193 73.5645C133.172 73.6741 132.255 72.9312 132.145 71.9103C132.054 71.0531 132.562 70.2538 133.365 69.9651L133.177 68.1931C132.991 66.4471 134.256 64.8718 136.008 64.6877C137.754 64.5018 139.328 65.7731 139.513 67.519L139.702 69.291C140.547 69.4049 141.21 70.0789 141.301 70.9361C141.354 71.4307 141.211 71.9151 140.898 72.3016C140.625 72.6479 140.247 72.8741 139.827 72.9592ZM135.769 65.0181C134.321 65.3111 133.306 66.6684 133.465 68.1642L133.677 70.175L133.561 70.2075C132.827 70.4176 132.353 71.1219 132.433 71.8814C132.525 72.7442 133.302 73.3716 134.162 73.2799L139.619 72.7016C140.039 72.6577 140.412 72.4529 140.675 72.1264C140.938 71.7999 141.061 71.3902 141.015 70.9734C140.934 70.2139 140.321 69.624 139.562 69.572L139.442 69.5638L139.229 67.553C139.06 65.9623 137.631 64.8088 136.04 64.9751C135.948 64.9849 135.86 64.9998 135.769 65.0181Z" fill="white"/>
<path d="M90.6261 118.928L59.0728 141.139C57.6354 142.153 55.6464 141.806 54.6327 140.369L45.8475 127.883C44.8338 126.446 45.1806 124.457 46.618 123.443L78.1685 101.233C79.6059 100.219 81.5949 100.566 82.6086 102.003L91.3961 114.485C92.4109 115.928 92.0635 117.914 90.6261 118.928Z" fill="#AA0D0D"/>
<path d="M90.2185 116.622L58.13 139.209C57.1398 139.905 55.7724 139.668 55.0754 138.678L46.3655 126.304C45.6686 125.314 45.9061 123.946 46.8963 123.249L78.982 100.663C79.9722 99.9658 81.3396 100.203 82.0366 101.194L90.7464 113.568C91.4462 114.557 91.2087 115.925 90.2185 116.622Z" fill="#FE5F5F"/>
<path d="M60.5099 118.275L51.0385 124.942L57.706 134.414L67.1775 127.746L60.5099 118.275Z" fill="white"/>
<path d="M65.2569 118.32C65.1496 118.342 65.0326 118.301 64.9629 118.203C64.8717 118.072 64.9029 117.892 65.0315 117.802L79.1621 107.855C79.2935 107.764 79.4732 107.795 79.5638 107.923C79.6551 108.055 79.6239 108.234 79.4953 108.325L65.3647 118.272C65.3314 118.296 65.2964 118.312 65.2569 118.32Z" fill="white"/>
<path d="M70.3077 125.493C70.2004 125.515 70.0834 125.474 70.0137 125.376C69.9225 125.245 69.9537 125.065 70.0823 124.975L84.2129 115.028C84.3443 114.937 84.5239 114.968 84.6146 115.096C84.7058 115.228 84.6746 115.407 84.5461 115.498L70.4155 125.445C70.3822 125.469 70.3444 125.486 70.3077 125.493Z" fill="white"/>
<path d="M67.781 121.908C67.6738 121.93 67.5568 121.889 67.4871 121.791C67.3958 121.66 67.4271 121.48 67.5556 121.39L75.0145 116.14C75.1459 116.049 75.3256 116.08 75.4163 116.208C75.5075 116.34 75.4763 116.519 75.3477 116.61L67.8888 121.86C67.8555 121.884 67.8206 121.9 67.781 121.908Z" fill="white"/>
<path d="M76.9627 115.443C76.8554 115.465 76.7384 115.424 76.6687 115.326C76.5775 115.195 76.6087 115.015 76.7373 114.924L81.6856 111.44C81.817 111.349 81.9967 111.38 82.0874 111.509C82.1786 111.64 82.1474 111.82 82.0188 111.911L77.0705 115.395C77.0378 115.422 77.0022 115.435 76.9627 115.443Z" fill="white"/>
<path d="M151.143 111.965C151.859 114.879 149.912 121.938 148.826 124.893C148.61 125.48 147.609 126.297 146.519 125.371C144.121 123.336 138.617 118.138 137.902 115.227C137.001 111.571 139.235 107.875 142.894 106.976C146.548 106.072 150.242 108.307 151.143 111.965Z" fill="#AA0D0D"/>
<path d="M151.788 111.462C152.504 114.375 149.909 121.938 148.826 124.893C148.61 125.48 147.871 125.662 147.407 125.242C145.075 123.128 139.265 117.636 138.546 114.723C137.645 111.068 139.88 107.372 143.538 106.473C147.193 105.571 150.889 107.806 151.788 111.462Z" fill="#FE5F5F"/>
<path d="M149.067 112.012C149.6 114.181 148.274 116.371 146.108 116.907C143.939 117.44 141.749 116.114 141.213 113.948C140.68 111.778 142.006 109.589 144.172 109.053C146.341 108.517 148.534 109.843 149.067 112.012Z" fill="white"/>
<g opacity="0.61">
<g opacity="0.61">
<g opacity="0.61">
<path opacity="0.61" d="M128.069 102.556L131.678 100.788C132.421 100.423 133.322 100.735 133.686 101.478L135.053 104.269C136.142 104.06 137.254 103.991 138.364 104.063L139.374 101.123C139.642 100.34 140.497 99.9203 141.28 100.191L145.082 101.493C145.864 101.761 146.284 102.616 146.014 103.399L145.007 106.339C145.927 106.964 146.764 107.702 147.496 108.533L150.287 107.166C151.03 106.801 151.934 107.112 152.296 107.855L154.063 111.464C154.428 112.207 154.117 113.108 153.374 113.473L150.583 114.84C150.791 115.929 150.86 117.04 150.788 118.151L153.728 119.16C154.511 119.428 154.931 120.283 154.661 121.067L153.358 124.868C153.091 125.651 152.235 126.071 151.452 125.8L148.513 124.794C147.888 125.713 147.149 126.55 146.319 127.283L147.686 130.074C148.051 130.817 147.74 131.72 146.996 132.082L143.387 133.85C142.644 134.214 141.744 133.903 141.379 133.16L140.012 130.369C138.923 130.578 137.811 130.647 136.701 130.575L135.694 133.514C135.426 134.297 134.571 134.717 133.788 134.446L129.986 133.144C129.204 132.876 128.784 132.021 129.054 131.238L130.064 128.298C129.144 127.673 128.307 126.937 127.574 126.104L124.786 127.468C124.043 127.832 123.139 127.522 122.777 126.778L121.01 123.169C120.645 122.426 120.956 121.525 121.699 121.16L124.488 119.797C124.282 118.707 124.213 117.596 124.282 116.486L121.342 115.476C120.56 115.209 120.14 114.353 120.41 113.57L121.712 109.769C121.983 108.985 122.836 108.569 123.619 108.836L126.558 109.843C127.183 108.923 127.922 108.086 128.752 107.354L127.385 104.563C127.017 103.82 127.326 102.921 128.069 102.556ZM138.84 104.787L138.574 104.764C137.351 104.662 136.126 104.736 134.932 104.99L134.673 105.045L133.074 101.778C132.875 101.372 132.385 101.203 131.979 101.403L128.37 103.171C127.963 103.37 127.795 103.86 127.995 104.266L129.593 107.533L129.39 107.704C128.459 108.492 127.646 109.411 126.976 110.44L126.83 110.664L123.389 109.485C122.963 109.339 122.494 109.566 122.349 109.995L121.047 113.797C120.901 114.223 121.128 114.691 121.557 114.837L124.999 116.018L124.976 116.284C124.874 117.506 124.948 118.731 125.202 119.926L125.257 120.185L121.993 121.783C121.587 121.983 121.418 122.472 121.618 122.878L123.386 126.487C123.585 126.894 124.075 127.062 124.481 126.862L127.745 125.264L127.916 125.468C128.704 126.401 129.623 127.211 130.652 127.879L130.875 128.025L129.694 131.467C129.548 131.893 129.775 132.361 130.204 132.506L134.005 133.809C134.432 133.955 134.897 133.728 135.045 133.299L136.224 129.857L136.49 129.88C137.712 129.982 138.937 129.908 140.132 129.654L140.391 129.599L141.989 132.866C142.189 133.272 142.678 133.441 143.085 133.241L146.694 131.473C147.1 131.274 147.268 130.784 147.069 130.378L145.47 127.111L145.674 126.94C146.604 126.152 147.417 125.233 148.085 124.204L148.231 123.981L151.672 125.159C152.098 125.305 152.566 125.078 152.712 124.649L154.014 120.848C154.16 120.422 153.933 119.953 153.504 119.808L150.062 118.627L150.085 118.361C150.187 117.138 150.112 115.913 149.859 114.719L149.804 114.46L153.071 112.861C153.477 112.661 153.645 112.172 153.446 111.766L151.678 108.156C151.478 107.75 150.989 107.582 150.582 107.782L147.315 109.38L147.142 109.177C146.354 108.247 145.435 107.434 144.406 106.766L144.183 106.62L145.361 103.179C145.507 102.753 145.28 102.284 144.851 102.139L141.05 100.837C140.623 100.691 140.155 100.918 140.01 101.347L138.84 104.787ZM133.356 108.791C138.059 106.49 143.758 108.443 146.059 113.146C148.359 117.849 146.406 123.548 141.703 125.848C137 128.149 131.301 126.196 128.998 121.494C126.7 116.79 128.653 111.091 133.356 108.791ZM141.406 125.236C145.772 123.1 147.585 117.812 145.449 113.445C143.314 109.079 138.025 107.267 133.659 109.402C129.293 111.537 127.481 116.826 129.616 121.192C131.751 125.558 137.04 127.371 141.406 125.236Z" fill="white"/>
</g>
</g>
<g opacity="0.61">
<g opacity="0.61">
<path opacity="0.61" d="M48.5818 88.7104L52.1909 86.9428C52.9339 86.5779 53.8344 86.8894 54.1993 87.6324L55.5634 90.424C56.6525 90.2154 57.7639 90.1462 58.8744 90.2182L59.8839 87.2783C60.1515 86.4955 61.0068 86.0756 61.7903 86.346L65.5916 87.6483C66.3745 87.916 66.7944 88.7713 66.5239 89.5547L65.5173 92.4941C66.4371 93.1189 67.2742 93.8575 68.0064 94.6878L70.7974 93.3208C71.5404 92.956 72.4437 93.2668 72.8058 94.0105L74.5733 97.6196C74.9382 98.3626 74.6268 99.2631 73.8837 99.6279L71.0927 100.995C71.3013 102.084 71.3705 103.195 71.2985 104.306L74.2384 105.315C75.0212 105.583 75.4411 106.438 75.1707 107.222L73.8683 111.023C73.6007 111.806 72.7454 112.226 71.962 111.955L69.0226 110.949C68.3978 111.869 67.6592 112.706 66.8289 113.438L68.1958 116.229C68.5607 116.972 68.2499 117.875 67.5062 118.237L63.8971 120.005C63.1541 120.37 62.2536 120.058 61.8888 119.315L60.5218 116.524C59.4327 116.733 58.3213 116.802 57.2108 116.73L56.2041 119.669C55.9365 120.452 55.0812 120.872 54.2977 120.602L50.4964 119.299C49.7135 119.032 49.2936 118.176 49.5641 117.393L50.5735 114.453C49.6537 113.828 48.8172 113.092 48.0845 112.259L45.2957 113.623C44.5527 113.988 43.6494 113.677 43.2873 112.933L41.5198 109.324C41.1549 108.581 41.4663 107.681 42.2094 107.316L44.9981 105.952C44.7923 104.863 44.7232 103.751 44.7924 102.641L41.8525 101.632C41.0696 101.364 40.6497 100.509 40.9202 99.7253L42.2225 95.9239C42.493 95.1405 43.346 94.724 44.1289 94.9916L47.0682 95.9982C47.6931 95.0784 48.4317 94.2414 49.262 93.5092L47.895 90.7181C47.5301 89.9751 47.8382 89.0724 48.5818 88.7104ZM59.3522 90.9384L59.0861 90.9159C57.8636 90.8136 56.6387 90.8881 55.4442 91.1416L55.185 91.197L53.5865 87.9297C53.3868 87.5235 52.8973 87.3552 52.4911 87.5549L48.882 89.3225C48.4757 89.5222 48.3074 90.0118 48.5071 90.418L50.1056 93.6852L49.9021 93.8557C48.9714 94.6434 48.1585 95.5631 47.4881 96.592L47.3423 96.8155L43.901 95.6372C43.4748 95.4913 43.0066 95.7183 42.8612 96.1473L41.5589 99.9486C41.413 100.375 41.64 100.843 42.0691 100.988L45.5109 102.17L45.4883 102.436C45.3861 103.658 45.4606 104.883 45.7141 106.078L45.7694 106.337L42.505 107.935C42.0988 108.134 41.9305 108.624 42.1302 109.03L43.8978 112.639C44.0975 113.045 44.5871 113.214 44.9933 113.014L48.2577 111.416L48.4281 111.62C49.2165 112.553 50.1356 113.363 51.1639 114.031L51.3874 114.177L50.2062 117.618C50.0603 118.045 50.2873 118.513 50.7164 118.658L54.5177 119.961C54.9439 120.106 55.4094 119.88 55.5575 119.45L56.7358 116.009L57.0019 116.032C58.2244 116.134 59.4493 116.06 60.6439 115.806L60.903 115.751L62.5015 119.018C62.7012 119.424 63.1907 119.592 63.5969 119.393L67.2061 117.625C67.6123 117.425 67.7806 116.936 67.5809 116.53L65.9824 113.262L66.1859 113.092C67.1166 112.304 67.9296 111.385 68.5971 110.356L68.7429 110.133L72.1842 111.311C72.6104 111.457 73.0786 111.23 73.224 110.801L74.5263 107C74.6722 106.573 74.4452 106.105 74.0161 105.96L70.5743 104.779L70.5969 104.513C70.6991 103.29 70.6246 102.065 70.3711 100.871L70.3158 100.611L73.583 99.013C73.9892 98.8132 74.1575 98.3237 73.9578 97.9175L72.1902 94.3084C71.9905 93.9022 71.501 93.7338 71.0948 93.9336L67.8275 95.5321L67.6571 95.3285C66.8693 94.3978 65.9496 93.5849 64.9213 92.9173L64.6978 92.7716L65.8762 89.3303C66.022 88.9041 65.795 88.4358 65.366 88.2905L61.5647 86.9882C61.1385 86.8423 60.6702 87.0693 60.5249 87.4983L59.3522 90.9384ZM53.8685 94.9424C58.5716 92.642 64.2705 94.5946 66.5709 99.2977C68.8713 104.001 66.9187 109.7 62.2156 112C57.5125 114.301 51.8136 112.348 49.5103 107.645C47.2071 102.943 49.1654 97.2428 53.8685 94.9424ZM61.9154 111.388C66.2817 109.253 68.094 103.964 65.9587 99.5979C63.8234 95.2316 58.5349 93.4193 54.1686 95.5546C49.8024 97.6899 47.99 102.978 50.1253 107.345C52.2634 111.71 57.5525 113.526 61.9154 111.388Z" fill="white"/>
</g>
</g>
<g opacity="0.61">
<path opacity="0.61" d="M128.845 91.3004L130.756 91.3808C130.902 92.0888 131.153 92.7609 131.49 93.3803L130.08 94.6764C129.812 94.9215 129.794 95.3395 130.042 95.6067L131.59 97.2858C131.835 97.5535 132.253 97.5718 132.52 97.3238L133.93 96.0277C134.519 96.4138 135.168 96.7174 135.859 96.9242L135.779 98.8357C135.765 99.2001 136.047 99.5073 136.412 99.5217L138.693 99.6154C139.057 99.6298 139.365 99.3472 139.379 98.9829L139.459 97.0714C140.167 96.9252 140.839 96.6746 141.459 96.3377L142.755 97.7473C143 98.0151 143.418 98.0333 143.685 97.7853L145.365 96.2407C145.633 95.9955 145.651 95.5775 145.403 95.3104L144.107 93.9007C144.493 93.3113 144.796 92.6622 145.003 91.9681L146.914 92.0485C147.279 92.0629 147.586 91.7804 147.6 91.4161L147.694 89.1346C147.708 88.7702 147.426 88.463 147.061 88.4486L145.15 88.3682C145.004 87.6603 144.753 86.9881 144.416 86.3687L145.826 85.0727C146.094 84.8275 146.112 84.4095 145.864 84.1423L144.316 82.4633C144.071 82.1955 143.653 82.1773 143.386 82.4253L141.976 83.7213C141.387 83.3352 140.738 83.0317 140.047 82.8248L140.127 80.9133C140.141 80.549 139.859 80.2418 139.495 80.2274L137.213 80.1337C136.849 80.1193 136.542 80.4018 136.527 80.7662L136.447 82.6777C135.739 82.8239 135.067 83.0745 134.447 83.4114L133.151 82.0017C132.906 81.734 132.488 81.7157 132.221 81.9637L130.541 83.5084C130.273 83.7535 130.255 84.1715 130.503 84.4387L131.799 85.8484C131.413 86.4378 131.11 87.0869 130.903 87.7809L128.992 87.7005C128.627 87.6861 128.32 87.9687 128.306 88.333L128.212 90.6145C128.198 90.9788 128.48 91.286 128.845 91.3004ZM138.165 84.6806C141.034 84.7995 143.266 87.2214 143.148 90.0898C143.029 92.9582 140.607 95.1908 137.738 95.0719C134.87 94.953 132.637 92.5311 132.756 89.6626C132.875 86.7914 135.297 84.5617 138.165 84.6806Z" fill="white"/>
</g>
</g>
<path d="M122.52 127.521L94.6902 146.833C92.3691 148.446 89.1789 147.869 87.5656 145.545L46.3932 86.2148C44.7805 83.8937 45.3573 80.7034 47.6812 79.0901L75.5105 59.7775C77.8316 58.1648 81.0219 58.7416 82.6352 61.0655L123.807 120.393C125.417 122.718 124.841 125.908 122.52 127.521Z" fill="#292930"/>
<path d="M118.255 125.948L94.5531 142.395C92.232 144.007 89.0417 143.43 87.4284 141.107L49.8011 86.8797C48.1884 84.5586 48.7652 81.3684 51.0891 79.7551L74.791 63.3081C77.1121 61.6954 80.3024 62.2722 81.9157 64.5961L119.546 118.825C121.154 121.147 120.576 124.335 118.255 125.948Z" fill="white"/>
<path d="M117.185 124.404L93.4827 140.851C91.1616 142.464 88.0421 141.99 86.5201 139.798L50.9719 88.5706C49.4498 86.378 50.0974 83.291 52.4191 81.681L76.121 65.2341C78.4422 63.6214 81.5616 64.0949 83.0837 66.2875L118.632 117.515C120.157 119.707 119.506 122.794 117.185 124.404Z" fill="#C0E4FF"/>
<path d="M72.5913 69.6593L58.5207 79.4235C57.6218 80.0491 56.3861 79.8232 55.7605 78.9243L54.4936 77.1796L71.7946 65.0398L73.0906 66.899C73.7139 67.8013 73.4908 69.0365 72.5913 69.6593Z" fill="#292930"/>
<path d="M59.697 77.0318C59.3075 77.1107 58.8886 76.9574 58.6478 76.6095C58.3242 76.1431 58.4413 75.5023 58.9049 75.1793C59.3713 74.8558 60.012 74.9729 60.3356 75.4393C60.6592 75.9057 60.542 76.5464 60.0756 76.87C59.96 76.9522 59.8297 77.005 59.697 77.0318ZM59.3435 75.2992C59.2475 75.3186 59.1555 75.3578 59.0704 75.4162C58.7354 75.6485 58.6528 76.1119 58.8852 76.4468C59.1175 76.7818 59.5808 76.8643 59.9158 76.632C60.2508 76.3997 60.3333 75.9363 60.101 75.6014C59.9276 75.3544 59.6257 75.2421 59.3435 75.2992Z" fill="white"/>
<path d="M62.4077 74.8466C62.1028 74.9083 61.7733 74.7899 61.5857 74.5164C61.465 74.341 61.4188 74.127 61.455 73.914C61.494 73.7004 61.6128 73.5177 61.7876 73.3942L68.5254 68.7192C68.7008 68.5985 68.9148 68.5523 69.1278 68.5885C69.3414 68.6275 69.5241 68.7463 69.6476 68.9211C69.9009 69.2871 69.8089 69.7906 69.4457 70.0433L62.7079 74.7183C62.6154 74.784 62.5121 74.8255 62.4077 74.8466ZM68.8799 68.8737C68.8122 68.8874 68.7473 68.9152 68.6881 68.9566L61.9503 73.6316C61.7157 73.7937 61.6577 74.1169 61.8197 74.3515C61.9818 74.5861 62.305 74.6441 62.5396 74.482L69.2774 69.807C69.512 69.6449 69.57 69.3217 69.408 69.0871C69.3292 68.9738 69.211 68.8978 69.0737 68.8727C69.0098 68.8621 68.942 68.8611 68.8799 68.8737Z" fill="white"/>
<path opacity="0.18" d="M84.1037 67.7558L62.5353 105.23L67.4806 112.36L87.8992 73.2259L84.1037 67.7558Z" fill="white"/>
<path opacity="0.1" d="M90.7685 77.4584L72.4907 119.679L77.4383 126.806L94.7255 83.1603L90.7685 77.4584Z" fill="white"/>
<path d="M107.993 56.7055C108.728 49.4958 103.548 43.062 96.4219 42.335C89.2961 41.6081 82.9233 46.8635 82.1878 54.0732C81.4524 61.2828 86.6328 67.7167 93.7586 68.4436C100.884 69.1705 107.257 63.9152 107.993 56.7055Z" fill="#3A93FB"/>
<path d="M107.01 55.304C107.747 48.0948 102.567 41.6607 95.4421 40.933C88.3169 40.2052 81.9438 45.4594 81.2075 52.6685C80.4712 59.8777 85.6505 66.3118 92.7757 67.0395C99.901 67.7673 106.274 62.5131 107.01 55.304Z" fill="#3865A7"/>
<path opacity="0.93" d="M104.024 55.0004C104.59 49.4591 100.608 44.5141 95.1321 43.9553C89.6557 43.3965 84.7579 47.4355 84.1925 52.9767C83.627 58.518 87.6081 63.463 93.0845 64.0218C98.5608 64.5806 103.459 60.5416 104.024 55.0004Z" fill="white"/>
<path d="M94.1823 53.2636C93.9151 53.2354 93.7231 52.9981 93.7518 52.7337L94.3486 46.8831C94.3768 46.6159 94.6141 46.4238 94.8785 46.4526C95.1457 46.4808 95.3377 46.7182 95.309 46.9826L94.7122 52.8332C94.6835 53.0976 94.4461 53.2896 94.1823 53.2636Z" fill="#9FBFFF"/>
<path d="M94.1184 54.1522C94.1466 53.885 94.3839 53.693 94.6483 53.7218L99.1577 54.1815C99.4249 54.2097 99.6169 54.447 99.5882 54.7114C99.56 54.9786 99.3226 55.1706 99.0582 55.1419L94.5488 54.6822C94.285 54.6562 94.093 54.4189 94.1184 54.1522Z" fill="#9FBFFF"/>
<path d="M95.5507 54.1325C95.4673 54.9398 94.7547 55.5277 93.9593 55.4448C93.161 55.3625 92.5838 54.6448 92.6644 53.838C92.7451 53.0313 93.4605 52.4428 94.2559 52.5257C95.0536 52.6053 95.6314 53.3258 95.5507 54.1325Z" fill="#1B1B25"/>
<path d="M125.1 116.764L99.4892 113.308C97.127 112.989 95.4678 110.816 95.7883 108.45L104.08 46.997C104.398 44.6348 106.572 42.9755 108.937 43.296L134.548 46.7522C136.911 47.0705 138.57 49.2441 138.249 51.6097L129.955 113.064C129.637 115.426 127.463 117.085 125.1 116.764Z" fill="#101011"/>
<path d="M124.476 115.724L100.369 112.472C98.1459 112.172 96.5924 110.056 96.9046 107.751L105.001 47.745C105.313 45.437 107.37 43.8102 109.593 44.1096L133.699 47.3619C135.922 47.6613 137.476 49.777 137.164 52.0821L129.067 112.088C128.756 114.396 126.699 116.026 124.476 115.724Z" fill="#282830"/>
<path d="M105.542 51.5558L98.3469 104.885L128.483 108.95L135.678 55.6217L105.542 51.5558Z" fill="white"/>
<path opacity="0.89" d="M121.46 48.3872C121.403 48.3986 121.345 48.4016 121.287 48.3927C121.151 48.3732 121.029 48.304 120.944 48.1918C120.86 48.0824 120.824 47.9458 120.843 47.8068C120.862 47.6707 120.931 47.5479 121.044 47.4635C121.153 47.3797 121.29 47.3432 121.429 47.3621C121.568 47.381 121.688 47.4508 121.772 47.563C121.856 47.6724 121.892 47.809 121.873 47.948C121.854 48.0869 121.785 48.2068 121.672 48.2913C121.609 48.3394 121.536 48.3718 121.46 48.3872ZM121.311 47.6504C121.277 47.6573 121.245 47.6726 121.216 47.693C121.168 47.7293 121.135 47.7858 121.127 47.8463C121.119 47.9067 121.134 47.9683 121.173 48.0162C121.209 48.0647 121.266 48.0973 121.326 48.1057C121.387 48.114 121.448 48.0986 121.496 48.0595C121.545 48.0233 121.577 47.9667 121.586 47.9062C121.594 47.8458 121.579 47.7843 121.54 47.7363C121.503 47.6879 121.447 47.6552 121.386 47.6469C121.363 47.6458 121.336 47.6453 121.311 47.6504Z" fill="white"/>
<path opacity="0.89" d="M124.035 50.5107C123.992 50.5193 123.949 50.5222 123.903 50.5138L118.197 49.7439C117.982 49.7139 117.83 49.5155 117.86 49.3008C117.874 49.1951 117.929 49.1046 118.013 49.0406C118.097 48.9766 118.2 48.9498 118.303 48.9643L124.01 49.7341C124.115 49.748 124.206 49.8032 124.27 49.8872C124.334 49.9712 124.361 50.0745 124.347 50.1802C124.324 50.3463 124.195 50.4782 124.035 50.5107ZM123.942 50.2296C124 50.2385 124.053 50.1955 124.062 50.1379C124.065 50.1108 124.06 50.0825 124.04 50.06C124.024 50.0369 123.997 50.0217 123.97 50.0183L118.264 49.2484C118.237 49.2451 118.208 49.2508 118.186 49.2701C118.163 49.2865 118.148 49.3131 118.144 49.3402C118.135 49.3978 118.178 49.4508 118.236 49.4598L123.942 50.2296Z" fill="white"/>
<g opacity="0.41">
<g opacity="0.41">
<g opacity="0.81">
<path opacity="0.81" d="M107.213 53.2575L100.486 103.116L127.437 106.752L134.164 56.8936L107.213 53.2575Z" fill="#9FBFFF"/>
</g>
</g>
</g>
<path d="M116.097 112.483C115.97 112.508 115.839 112.512 115.706 112.494L109.679 111.681C109.036 111.593 108.584 111 108.671 110.357L108.685 110.251C108.727 109.94 108.889 109.663 109.138 109.472C109.387 109.28 109.697 109.2 110.009 109.243L116.035 110.056C116.679 110.144 117.131 110.737 117.044 111.38L117.03 111.486C116.987 111.797 116.826 112.074 116.576 112.265C116.434 112.374 116.27 112.448 116.097 112.483ZM108.955 110.396C108.889 110.883 109.232 111.33 109.719 111.396L115.745 112.21C116.232 112.276 116.68 111.933 116.746 111.447L116.76 111.341C116.826 110.854 116.482 110.407 115.996 110.341L109.969 109.527C109.734 109.495 109.499 109.557 109.311 109.701C109.123 109.845 109.001 110.055 108.969 110.29L108.955 110.396Z" fill="white"/>
<path opacity="0.18" d="M104.877 56.4971L133.343 72.9568L132.154 81.7656L103.914 62.5835L104.877 56.4971Z" fill="white"/>
<path opacity="0.18" d="M103.35 67.6222L131.815 84.0819L130.627 92.8907L103.015 69.7439L103.35 67.6222Z" fill="white"/>
<path d="M62.2907 64.2061L55.0965 66.3788C53.568 66.8409 51.9388 65.9629 51.4756 64.4288L49.4923 57.8662C49.0291 56.3321 49.9002 54.6984 51.4287 54.2363L58.6229 52.0635C60.1514 51.6014 61.7806 52.4794 62.2439 54.0135L64.2271 60.5761C64.6904 62.1102 63.8192 63.744 62.2907 64.2061Z" fill="#AA0D0D"/>
<path d="M62.209 63.1627L55.5713 65.167C54.1619 65.5932 52.6588 64.7867 52.2326 63.3773L50.4092 57.3436C49.983 55.9342 50.7895 54.4311 52.1989 54.0049L58.8366 52.0005C60.2459 51.5743 61.7491 52.3808 62.1753 53.7902L63.9986 59.8239C64.4249 61.2333 63.6184 62.7364 62.209 63.1627Z" fill="#FE5F5F"/>
<path d="M55.6271 62.4083C55.6017 62.4134 55.5847 62.4168 55.5757 62.4157L55.4932 62.4001L55.4654 62.3205C55.1474 61.3447 55.3924 60.2755 56.086 59.5357C55.5043 59.3038 55.0525 58.8281 54.854 58.2247C54.4939 57.1134 55.1012 55.918 56.2125 55.558C56.7498 55.3817 57.3232 55.4273 57.8276 55.6837C58.332 55.9401 58.7058 56.3787 58.8793 56.9165C59.0749 57.5205 58.9917 58.1691 58.6557 58.7013C59.6525 58.8933 60.4793 59.6105 60.7972 60.5863L60.8223 60.6665L60.7676 60.7304C60.6786 60.8278 56.1719 62.298 55.6271 62.4083ZM56.514 55.7702C56.4435 55.7845 56.3763 55.8011 56.3074 55.8238C55.348 56.1355 54.8228 57.1703 55.1345 58.1298C55.3267 58.7168 55.7965 59.1653 56.3967 59.3289L56.6516 59.3978L56.4555 59.5755C55.7469 60.2126 55.46 61.1904 55.706 62.1014C56.3952 61.9061 59.8166 60.7936 60.4865 60.5464C60.1496 59.6654 59.3393 59.0449 58.3936 58.9453L58.1298 58.9194L58.2965 58.7123C58.6863 58.2279 58.8034 57.5872 58.6112 57.0002C58.461 56.534 58.1382 56.1585 57.7022 55.9353C57.3318 55.7458 56.9149 55.6891 56.514 55.7702Z" fill="white"/>
<path d="M124.447 129.437L107.262 127.617C106.866 127.574 106.51 127.863 106.467 128.26L106.27 130.107L106.174 131.011L105.231 139.899L105.149 140.671L105.138 140.788C105.095 141.184 105.384 141.54 105.781 141.583L122.965 143.403C123.362 143.447 123.718 143.157 123.761 142.761L123.778 142.613L123.852 141.919L124.873 132.298L124.967 131.398L125.09 130.233C125.132 129.833 124.846 129.477 124.447 129.437Z" fill="white"/>
<path d="M113.123 134.552L114.904 135.741C115.009 135.811 115.144 135.824 115.26 135.774L124.148 131.737L124.819 131.434C124.867 131.412 124.918 131.402 124.97 131.397L125.093 130.232C125.136 129.836 124.847 129.48 124.45 129.437L107.265 127.616C106.869 127.573 106.513 127.863 106.47 128.259L106.273 130.106L106.703 130.386L113.123 134.552Z" fill="#3865A7"/>
<path d="M106.176 131.007L105.234 139.898L112.476 135.101L106.176 131.007Z" fill="#3865A7"/>
<path d="M123.852 141.919L124.873 132.298L117.718 135.548L123.852 141.919Z" fill="#3865A7"/>
<path d="M123.314 142.528L116.934 135.903L115.589 136.513C115.394 136.597 115.186 136.627 114.984 136.606C114.798 136.585 114.615 136.522 114.452 136.414L113.198 135.578C113.176 135.6 113.154 135.622 113.129 135.639L105.566 140.651C105.483 140.706 105.39 140.725 105.3 140.717C105.249 140.712 105.199 140.696 105.152 140.67L105.141 140.787C105.098 141.184 105.387 141.539 105.784 141.583L122.968 143.403C123.365 143.446 123.721 143.157 123.764 142.76L123.781 142.613C123.714 142.644 123.638 142.659 123.565 142.65C123.473 142.643 123.382 142.602 123.314 142.528Z" fill="#3865A7"/>
<path d="M104.969 86.7525L99.2727 90.7056C98.0619 91.5471 96.3843 91.2431 95.5456 90.0317L91.9529 84.8526C91.1115 83.6419 91.4155 81.9642 92.6268 81.1256L98.3236 77.1725C99.5343 76.331 101.212 76.635 102.051 77.8463L105.643 83.0254C106.481 84.2339 106.18 85.911 104.969 86.7525Z" fill="#AA0D0D"/>
<path d="M104.555 86.096L98.8578 90.0491C97.647 90.8906 95.9694 90.5866 95.1307 89.3752L91.538 84.1961C90.6965 82.9854 91.0006 81.3077 92.2119 80.4691L97.9087 76.516C99.1194 75.6745 100.797 75.9785 101.636 77.1898L105.228 82.369C106.067 83.5775 105.763 85.2551 104.555 86.096Z" fill="#FE5F5F"/>
<path d="M98.8585 85.6237C97.9524 85.807 96.9784 85.4517 96.4186 84.6453C95.6677 83.5631 95.936 82.072 97.021 81.3206C97.5438 80.9562 98.18 80.8186 98.8084 80.9324C99.4367 81.0462 99.9837 81.3969 100.346 81.923C100.71 82.4458 100.848 83.082 100.734 83.7104C100.62 84.3387 100.269 84.8857 99.7461 85.2472C99.4698 85.4353 99.1662 85.5614 98.8585 85.6237ZM97.9646 81.2207C97.688 81.2767 97.4228 81.3891 97.1831 81.5552C96.2295 82.2153 95.9924 83.5268 96.6554 84.4798C97.3156 85.4335 98.6293 85.6671 99.5801 85.0075C100.041 84.6879 100.35 84.2083 100.449 83.6534C100.549 83.1013 100.427 82.5441 100.108 82.0828C99.7882 81.6216 99.3085 81.3131 98.7565 81.2133C98.4881 81.1647 98.2215 81.1687 97.9646 81.2207Z" fill="white"/>
<path d="M141.299 78.9222L131.433 80.0312C129.336 80.2676 127.429 78.7435 127.192 76.6463L126.182 67.6771C125.946 65.5799 127.47 63.673 129.567 63.4367L139.433 62.3276C141.53 62.0913 143.437 63.6153 143.674 65.7125L144.684 74.6818C144.92 76.7789 143.396 78.6858 141.299 78.9222Z" fill="#3A93FB"/>
<path d="M142.262 77.6988L132.396 78.8079C130.298 79.0442 128.392 77.5201 128.155 75.4229L127.145 66.4537C126.909 64.3565 128.433 62.4496 130.53 62.2133L140.396 61.1042C142.493 60.8679 144.4 62.3919 144.637 64.4891L145.647 73.4584C145.879 75.5533 144.359 77.4625 142.262 77.6988Z" fill="#3865A7"/>
<path d="M137.108 74.5604C137.048 74.5724 136.986 74.5822 136.925 74.5885C135.993 74.6861 135.118 74.108 134.843 73.2145L134.792 73.0486L138.693 72.6353L138.678 72.8088C138.598 73.6799 137.952 74.3896 137.108 74.5604ZM135.18 73.2962C135.465 73.9643 136.16 74.379 136.897 74.3033C137.633 74.2249 138.227 73.6728 138.365 72.9603L135.18 73.2962Z" fill="white"/>
<path d="M139.677 72.8093C139.617 72.8213 139.56 72.8299 139.5 72.8362L134.043 73.4146C133.022 73.5242 132.105 72.7813 131.995 71.7603C131.904 70.9032 132.412 70.1039 133.215 69.8152L133.027 68.0432C132.841 66.2972 134.106 64.7219 135.858 64.5378C137.604 64.3519 139.178 65.6232 139.363 67.3691L139.552 69.1411C140.397 69.255 141.06 69.929 141.151 70.7862C141.204 71.2808 141.061 71.7652 140.748 72.1517C140.475 72.498 140.097 72.7242 139.677 72.8093ZM135.619 64.8682C134.171 65.1612 133.156 66.5185 133.315 68.0143L133.528 70.0251L133.411 70.0576C132.677 70.2677 132.203 70.972 132.283 71.7315C132.375 72.5943 133.152 73.2217 134.012 73.13L139.469 72.5517C139.889 72.5078 140.262 72.303 140.525 71.9765C140.788 71.65 140.911 71.2403 140.865 70.8235C140.784 70.064 140.171 69.4741 139.412 69.4221L139.292 69.4139L139.079 67.4031C138.91 65.8124 137.481 64.6589 135.89 64.8252C135.798 64.835 135.71 64.8499 135.619 64.8682Z" fill="white"/>
<path d="M90.4761 118.778L58.9228 140.989C57.4854 142.003 55.4964 141.656 54.4827 140.219L45.6975 127.734C44.6838 126.296 45.0306 124.307 46.468 123.294L78.0185 101.083C79.456 100.069 81.4449 100.416 82.4586 101.853L91.2461 114.335C92.2609 115.778 91.9136 117.764 90.4761 118.778Z" fill="#AA0D0D"/>
<path d="M90.0685 116.472L57.98 139.059C56.9898 139.756 55.6224 139.518 54.9254 138.528L46.2156 126.154C45.5186 125.164 45.7561 123.796 46.7464 123.099L78.832 100.513C79.8223 99.8159 81.1897 100.053 81.8866 101.044L90.5965 113.418C91.2963 114.407 91.0588 115.775 90.0685 116.472Z" fill="#FE5F5F"/>
<path d="M60.36 118.125L50.8885 124.792L57.5561 134.264L67.0275 127.596L60.36 118.125Z" fill="white"/>
<path d="M65.1069 118.17C64.9997 118.192 64.8827 118.151 64.813 118.053C64.7217 117.922 64.753 117.742 64.8815 117.652L79.0121 107.705C79.1435 107.614 79.3232 107.645 79.4139 107.773C79.5051 107.905 79.4739 108.085 79.3453 108.175L65.2147 118.122C65.1814 118.146 65.1465 118.162 65.1069 118.17Z" fill="white"/>
<path d="M70.1577 125.343C70.0505 125.365 69.9334 125.324 69.8638 125.226C69.7725 125.095 69.8037 124.915 69.9323 124.825L84.0629 114.878C84.1943 114.787 84.374 114.818 84.4646 114.946C84.5559 115.078 84.5247 115.258 84.3961 115.348L70.2655 125.295C70.2322 125.319 70.1944 125.336 70.1577 125.343Z" fill="white"/>
<path d="M67.6311 121.758C67.5238 121.78 67.4068 121.739 67.3371 121.642C67.2459 121.51 67.2771 121.33 67.4057 121.24L74.8646 115.99C74.996 115.899 75.1757 115.93 75.2663 116.058C75.3575 116.19 75.3263 116.37 75.1978 116.46L67.7388 121.71C67.7056 121.734 67.6706 121.75 67.6311 121.758Z" fill="white"/>
<path d="M76.8127 115.293C76.7055 115.315 76.5885 115.274 76.5188 115.176C76.4275 115.045 76.4587 114.865 76.5873 114.775L81.5357 111.29C81.6671 111.199 81.8468 111.23 81.9374 111.359C82.0287 111.49 81.9974 111.67 81.8689 111.761L76.9205 115.245C76.8878 115.272 76.8522 115.285 76.8127 115.293Z" fill="white"/>
<path d="M150.993 111.815C151.709 114.729 149.762 121.788 148.676 124.743C148.46 125.33 147.459 126.147 146.369 125.222C143.971 123.186 138.467 117.988 137.752 115.077C136.851 111.422 139.085 107.725 142.744 106.826C146.398 105.922 150.092 108.157 150.993 111.815Z" fill="#AA0D0D"/>
<path d="M151.638 111.312C152.354 114.226 149.759 121.788 148.676 124.743C148.46 125.33 147.721 125.512 147.257 125.092C144.925 122.978 139.115 117.486 138.396 114.573C137.495 110.918 139.73 107.222 143.388 106.323C147.043 105.421 150.739 107.656 151.638 111.312Z" fill="#FE5F5F"/>
<path d="M148.917 111.862C149.45 114.031 148.124 116.221 145.958 116.757C143.789 117.29 141.599 115.964 141.063 113.798C140.53 111.629 141.856 109.439 144.022 108.903C146.191 108.367 148.384 109.693 148.917 111.862Z" fill="white"/>
</svg>
