<svg width="179" height="178" viewBox="0 0 179 178" fill="none" xmlns="http://www.w3.org/2000/svg">
<path d="M150.814 95.4578C178.482 89.5269 176.171 34.157 130.389 26.1681C84.6072 18.1793 104.283 43.6507 51.7775 52.2563C23.405 56.9065 1.58475 66.7323 33.4424 122.22C53.8588 157.78 119.237 179.302 129.292 158.632C139.348 137.963 92.0254 108.06 150.814 95.4578Z" fill="#F1F2F2"/>
<path d="M58.0436 46.1072C58.0436 46.1072 60.8194 45.8168 61.8187 48.4988C62.8181 51.1825 63.7614 52.0607 63.8785 53.4705C64.3553 59.1725 67.0157 57.8833 66.2674 61.1701C65.5192 64.4568 65.0017 64.9544 65.0017 64.9544L58.6426 63.706L52.2003 63.7264C52.2003 63.7264 54.7198 62.4661 54.1599 59.7823C53.5983 57.0986 52.2003 52.701 52.9909 49.7048C53.7799 46.7119 56.3843 46.3365 58.0436 46.1072Z" fill="#454240"/>
<path d="M56.2874 134.213C56.2874 134.213 54.2938 136.955 54.5771 137.396C54.8605 137.838 57.0356 137.901 58.359 137.396C59.6825 136.892 59.7147 133.624 60.3136 132.221C60.5647 131.633 60.0269 129.899 59.2736 129.773C58.5185 129.647 57.6346 130.043 57.6346 130.043C57.6346 130.043 58.4065 132.039 56.2874 134.213Z" fill="#3865A7"/>
<path d="M57.6348 130.043C57.6348 130.043 57.477 131.338 57.2259 132.251C56.9731 133.167 55.6174 135.249 55.6819 135.502C55.7447 135.756 57.4465 135.983 58.1404 135.333C58.8344 134.682 59.3705 132.798 59.4333 131.657C59.4961 130.516 59.2755 129.773 59.2755 129.773C59.2755 129.773 58.2965 129.349 57.6348 130.043Z" fill="#E7A585"/>
<path d="M60.314 132.221V135.139H59.9356V132.883L60.314 132.221Z" fill="#4F5587"/>
<path d="M61.5047 134.213C61.5047 134.213 59.5111 136.955 59.7945 137.396C60.0778 137.838 62.253 137.901 63.5764 137.396C64.8998 136.892 64.932 133.624 65.531 132.221C65.7821 131.633 65.2442 129.899 64.4909 129.773C63.7359 129.647 62.8519 130.043 62.8519 130.043C62.8519 130.043 63.6239 132.039 61.5047 134.213Z" fill="#3865A7"/>
<path d="M62.8521 130.043C62.8521 130.043 62.6943 131.338 62.4432 132.251C62.1904 133.167 60.8347 135.249 60.8992 135.502C60.962 135.756 62.6638 135.983 63.3577 135.333C64.0517 134.682 64.5878 132.798 64.6506 131.657C64.7134 130.516 64.4928 129.773 64.4928 129.773C64.4928 129.773 63.5138 129.349 62.8521 130.043Z" fill="#E7A585"/>
<path d="M65.5312 132.221V135.139H65.1529V132.883L65.5312 132.221Z" fill="#4F5587"/>
<path d="M52.6229 84.6102C52.6229 84.6102 51.1145 92.928 50.7073 95.0105C50.3001 97.0912 49.1583 107.17 49.0361 108.884C48.914 110.598 52.7552 118.841 52.9945 119.41C57.0139 128.929 57.4771 131.083 57.4771 131.083C57.4771 131.083 58.7971 131.91 59.4062 130.923C59.5912 130.622 56.9325 119.708 56.4947 116.679C56.0875 113.863 55.0271 109.514 55.3121 108.526C55.5972 107.537 58.2067 93.9183 58.6953 93.3459C59.184 92.7752 59.9186 93.672 60.2037 94.9374C60.4887 96.2029 61.0995 107.138 61.466 108.526C61.8325 109.914 61.5474 114.607 61.751 116.973C61.9546 119.339 62.803 130.386 62.803 130.386C62.803 130.386 64.4454 130.68 64.6082 130.417C64.7711 130.154 66.1929 118.147 66.2337 115.332C66.2744 112.516 66.3185 108.633 66.3966 107.417C67.1516 95.7493 68.5785 94.2223 66.0844 85.8264C59.9865 65.2772 52.6229 84.6102 52.6229 84.6102Z" fill="#E7A585"/>
<path d="M52.6228 84.6103C52.6228 84.6103 51.1145 92.9281 50.7073 95.0106C50.3001 97.0913 49.1582 107.171 49.036 108.884C48.9139 110.598 52.6228 118.841 52.7043 119.453C52.7857 120.064 55.8397 128.826 55.8397 128.826C55.8397 128.826 58.926 128.773 59.7658 127.973C59.9355 127.811 56.9324 119.706 56.4946 116.677C56.0874 113.861 55.027 109.513 55.3121 108.524C55.5971 107.536 58.2066 93.9167 58.6952 93.3443C59.1839 92.7736 59.9185 93.6704 60.2036 94.9358C60.4886 96.2013 61.0994 107.137 61.4659 108.524C61.8324 109.912 61.5473 114.605 61.7509 116.971C61.9545 119.337 61.5253 127.747 61.5253 127.747C61.5253 127.747 65.5668 127.959 65.7297 127.696C65.8925 127.433 66.1946 118.147 66.2353 115.33C66.276 112.514 66.3201 108.631 66.3982 107.415C67.1532 95.7478 68.5801 94.2207 66.086 85.8248C59.9864 65.2773 52.6228 84.6103 52.6228 84.6103Z" fill="#FE5F5F"/>
<path d="M66.6933 87.4095C66.9291 87.3143 65.0407 81.067 64.6674 79.2003C64.3298 77.5171 63.1795 75.9748 64.3027 73.1059C64.9457 71.4634 64.9033 69.5219 64.9033 69.5219C64.9033 69.5219 66.6203 73.3165 66.7849 74.2949C66.9478 75.275 60.8482 73.4932 60.7634 73.6274C60.6022 73.8855 60.4241 75.5382 60.4241 76.109C60.4241 76.5812 69.2807 78.6755 70.3293 76.8189C70.6262 76.2924 68.7039 66.2166 67.4619 64.8747C65.4242 62.6717 60.0711 60.7948 60.0711 60.7948C60.0711 60.7948 58.6035 60.0066 56.0212 60.8219C53.4405 61.6372 49.8266 64.1409 49.2005 64.7932C48.5761 65.4454 46.0752 75.2851 45.8564 76.5591C45.6511 77.7582 45.7308 80.2789 48.4642 79.9562L55.8413 78.2644L55.3832 76.0138L49.8537 76.4521C48.7254 76.6457 49.2667 75.6537 49.4109 75.1017C49.5517 74.5616 50.9396 69.5542 50.9396 69.5542C50.8599 70.9419 51.905 75.4958 52.448 77.0737C52.9909 78.6517 51.7896 87.0952 51.7082 88.0192C51.7082 88.0209 56.1501 91.6728 66.6933 87.4095Z" fill="#3865A7"/>
<path d="M61.2725 61.2585C61.2725 61.2585 59.4536 65.0191 57.9334 66.1198C57.9334 66.1198 55.1966 62.0143 55.3375 61.0682C55.3358 61.0682 58.3677 59.7213 61.2725 61.2585Z" fill="#E7A585"/>
<path d="M61.3386 73.9348C61.3386 73.9348 60.4954 73.5934 60.2731 73.2877C60.0491 72.9819 59.3026 72.7985 58.7478 72.9632C58.1947 73.128 58.5001 75.5077 58.5001 75.5077L61.4201 75.8865L61.3386 73.9348Z" fill="#E7A585"/>
<path d="M56.0535 75.7522C56.0535 75.7522 56.3334 74.215 56.2673 73.9313C56.1994 73.6477 56.7661 73.3623 56.8458 74.0638C56.9239 74.7653 56.9663 75.212 56.9663 75.212L56.0535 75.7522Z" fill="#E7A585"/>
<path d="M57.2681 76.8189L59.3941 76.7323C59.6656 76.7204 59.881 76.4996 59.8844 76.2261L59.9421 71.567C59.9455 71.2748 59.7046 71.0387 59.4128 71.0489L56.8677 71.1321C56.5759 71.1423 56.3519 71.392 56.374 71.6842L56.7354 76.345C56.7574 76.6219 56.9933 76.8308 57.2681 76.8189Z" fill="#ECEBEB"/>
<path d="M56.0076 75.8781C56.0076 75.8781 55.9686 75.4415 56.8068 75.0407C57.9198 74.509 59.4044 73.9689 59.6572 74.1082C60.022 74.3086 59.8336 74.5872 59.1312 74.8182C58.4288 75.0509 58.1964 75.1239 58.1964 75.1239C58.1964 75.1239 59.5724 74.9931 59.8812 75.1579C60.19 75.3226 60.2069 75.7031 59.9813 75.766C59.7556 75.8288 59.2245 75.8662 59.2245 75.8662C59.2245 75.8662 59.8082 75.8882 59.8659 76.1226C59.9083 76.2959 59.9304 76.5456 59.3772 76.6475C59.3772 76.6475 59.7522 77.0637 59.1906 77.3303C58.629 77.597 57.6127 77.8399 57.102 77.9248C56.0399 78.0998 53.6425 77.969 53.6425 77.969L54.6265 76.2993C54.6265 76.2993 55.1746 76.3418 55.5512 76.2144C56.0585 76.0428 56.0076 75.8781 56.0076 75.8781Z" fill="#E7A585"/>
<path d="M55.385 76.0156L55.8431 78.2662L51.1416 79.3448L50.9601 76.3655L55.385 76.0156Z" fill="#474D7C"/>
<path d="M60.7618 73.6274C60.7618 73.6274 60.375 74.4597 60.4225 76.109C60.4225 76.109 63.3391 77.1757 65.6025 77.422V74.56L60.7618 73.6274Z" fill="#474D7C"/>
<path d="M55.8413 78.2662L52.5464 80.1007C52.5684 79.7185 52.5854 79.3516 52.5939 79.0119L55.8413 78.2662Z" fill="#20233A"/>
<path d="M64.5046 78.5108C61.8612 77.4594 60.8025 76.5116 60.5123 76.2092C60.4496 76.1447 60.4224 76.109 60.4224 76.109L64.1772 77.2046C64.2722 77.6615 64.3944 78.0878 64.5046 78.5108Z" fill="#20233A"/>
<path d="M58.4101 47.6767C58.4101 47.6767 62.0868 48.2083 61.5472 53.6403C61.0094 59.074 57.7653 58.6426 57.5481 58.6375C57.331 58.6324 54.2939 58.7513 54.0309 52.1218C54.0309 52.1218 53.9071 47.2198 58.4101 47.6767Z" fill="#E7A585"/>
<path d="M60.0422 57.6744C60.0422 57.6744 59.8148 60.5008 60.3578 61.3467C60.9024 62.1926 59.8929 63.3425 57.8144 62.9501C55.736 62.5561 55.8565 61.3773 55.8565 61.3773C55.8565 61.3773 56.4384 59.6328 56.2688 58.2366C56.0991 56.8421 60.0422 57.6744 60.0422 57.6744Z" fill="#E7A585"/>
<path d="M57.9893 49.6472C57.9893 49.6472 59.7063 51.4545 60.5055 52.37C61.3029 53.2855 61.3945 55.0537 61.3945 55.0537C61.3945 55.0537 62.7383 53.4095 62.1767 51.497C61.6151 49.5827 60.2849 45.8594 56.9187 47.0043C53.5525 48.1491 53.4286 53.1836 53.8222 55.6788C53.8222 55.6771 55.3323 50.167 57.9893 49.6472Z" fill="#454240"/>
<path d="M56.5403 58.3929C56.5403 58.3929 58.1063 59.1334 59.6316 58.0396C59.6316 58.0396 59.2075 58.9143 58.086 59.04C56.9628 59.1623 56.5403 58.3929 56.5403 58.3929Z" fill="#A4775F"/>
<path d="M56.0058 59.3782C56.0058 59.3782 50.948 63.8828 52.2613 66.6939C53.3811 69.0923 57.3547 67.6213 56.6981 65.1074C56.0432 62.5953 56.0058 59.3782 56.0058 59.3782Z" fill="#454240"/>
<path d="M57.3835 72.0325C57.3835 72.2075 57.2427 72.3484 57.068 72.3484C56.8932 72.3484 56.7524 72.2058 56.7524 72.0325C56.7524 71.8575 56.8949 71.7166 57.068 71.7166C57.2427 71.7149 57.3835 71.8575 57.3835 72.0325Z" fill="#48484D"/>
<path d="M79.8001 133.766C79.8001 133.766 78.7549 135.332 77.289 135.67C75.8231 136.008 74.3792 136.547 74.3673 137.473C74.3555 138.398 78.6056 138.952 80.2837 138.018C82.7879 136.625 83.0424 137.045 83.319 136.348C83.5973 135.652 82.9848 133.788 83.0034 133.568C83.0272 133.292 79.8001 133.766 79.8001 133.766Z" fill="#353A3D"/>
<path d="M79.9627 132.993C79.9627 132.993 79.7726 133.749 79.7998 133.766C79.8286 133.782 83.1032 134.172 83.0048 133.566C82.9251 133.073 82.8097 132.54 82.8097 132.54L79.9627 132.993Z" fill="#82807F"/>
<path d="M90.8217 133.663C90.8217 133.663 90.0769 135.161 88.8027 135.67C87.4419 136.216 86.3493 136.842 86.3747 137.744C86.4002 138.646 89.7036 139.562 92.1061 137.829C93.6246 136.735 94.1065 136.73 94.3491 136.041C94.5934 135.351 93.9266 133.561 93.9351 133.345C93.947 133.077 90.8217 133.663 90.8217 133.663Z" fill="#353A3D"/>
<path d="M90.7843 132.885C90.7843 132.885 90.7928 133.648 90.8216 133.663C90.8505 133.676 94.0148 133.938 93.935 133.345C93.8705 132.873 93.6279 132.304 93.6279 132.304L90.7843 132.885Z" fill="#82807F"/>
<path d="M79.179 87.1461C79.179 87.1461 76.2387 100.132 75.5668 104.087C74.995 107.454 74.5386 110.96 74.8135 113.39C75.1528 116.399 79.4081 131.995 79.2299 132.876C79.0518 133.758 83.682 133.017 83.682 133.017C83.682 133.017 80.4465 115.622 81.0929 112.385C81.5714 109.987 85.7656 94.0575 86.4086 94.8745C87.0516 95.6915 87.8491 109.908 88.3241 112.268C88.8009 114.627 90.2618 133.274 90.2618 133.274C90.2618 133.274 93.5296 133.756 94.4034 133.017C94.4034 133.017 94.8004 117.095 94.4967 112.672C94.3813 110.985 96.4699 92.4558 93.7909 84.9957C92.3758 81.0516 79.179 87.1461 79.179 87.1461Z" fill="#2D3132"/>
<path d="M66.3792 75.3412C68.4746 75.0456 75.0696 77.9706 75.6685 77.7497C76.0808 77.5986 77.0479 74.4443 77.7385 72.0562C78.1474 70.6447 78.4596 69.4998 78.502 69.4047L78.5037 69.3996C78.4969 69.4625 78.39 70.5428 78.5258 71.9611C78.5342 72.0528 78.5444 72.1462 78.5546 72.2413C78.558 72.2651 78.5614 72.2906 78.5631 72.3161C78.6242 72.8239 78.7192 73.3658 78.86 73.9144C79.0687 74.7229 79.1688 75.7879 79.2061 76.9124V76.9175C79.2061 76.9259 79.2061 76.9344 79.2078 76.9429C79.2078 76.9684 79.2095 76.9939 79.2095 77.0211C79.2095 77.0313 79.2112 77.0414 79.2112 77.0533C79.2706 79.0984 79.1281 81.3014 79.0704 82.4751C78.9788 84.2926 79.576 85.1113 79.593 85.1334L80.2241 85.0451L80.6805 84.9805L80.6856 84.9788L81.2947 84.8939L83.6854 84.5576L84.5507 84.4353L84.756 84.4064L86.2711 84.1941L90.5433 83.5928L91.0116 83.5266L91.205 83.4994L92.8152 83.2718L93.5431 83.1699H93.5465C93.5465 83.1699 94.1658 78.7791 94.2116 76.4062C94.254 74.2269 95.4196 69.8005 95.6096 69.0922C95.6113 69.0871 95.613 69.082 95.613 69.0769C95.6147 69.0701 95.6164 69.0633 95.6181 69.0582C95.6215 69.0463 95.6249 69.0361 95.6266 69.0276C95.6283 69.0225 95.63 69.0174 95.63 69.0124C95.63 69.0107 95.63 69.009 95.6317 69.009C95.6317 69.0073 95.6334 69.0056 95.6334 69.0039C95.6351 68.9988 95.6351 68.9971 95.6351 68.9971C95.6351 68.9971 99.1218 72.6643 99.7987 74.2643C100.006 74.7501 100.635 76.0699 101.439 77.6784C101.989 76.6287 102.332 75.9 102.332 75.7166C102.332 75.6945 102.332 75.6707 102.33 75.6452C102.279 74.0639 100.623 67.6484 99.3152 63.4581C98.3006 61.4164 97.4251 59.7637 97.1451 59.5633C96.7193 59.2575 94.9293 58.4898 93.3683 57.8698C93.3174 57.8494 93.2665 57.829 93.2156 57.8104C93.0697 57.7526 92.9255 57.6965 92.7864 57.6422C92.7168 57.615 92.6472 57.5895 92.5794 57.5624C92.542 57.5488 92.5047 57.5352 92.4691 57.5199C92.4385 57.508 92.4097 57.4978 92.3791 57.4859C91.5987 57.1887 91.0048 56.9815 90.8827 56.9747C90.8623 56.973 90.8301 56.973 90.786 56.9747C90.7351 56.9764 90.6672 56.9781 90.5891 56.9832C89.6237 57.0392 86.7428 57.3093 85.8147 57.3976C85.6467 57.4129 85.5415 57.4231 85.5263 57.4248C85.5246 57.4248 85.5246 57.4248 85.5246 57.4248C85.5246 57.4248 85.0834 57.6269 84.4183 57.9309L84.3572 57.9598C83.9551 58.145 83.4902 58.3896 82.9982 58.6596C82.0345 59.1879 80.969 59.8062 80.0867 60.2274C79.2214 60.6402 78.0354 61.2143 77.9336 61.2941L73.546 73.9586L65.9347 72.5657L66.3792 75.3412Z" fill="#DDCAC3"/>
<path d="M79.5929 85.1316C79.5929 85.1316 79.2723 85.5171 79.179 87.1461C79.179 87.1461 92.3944 85.6021 93.7907 84.994C93.7907 84.994 93.845 83.1986 93.5498 83.1663C93.2241 83.1324 79.5929 85.1316 79.5929 85.1316Z" fill="#495055"/>
<path d="M90.8642 56.5195C90.8235 58.5951 86.8074 59.7314 86.8074 59.7314C86.8074 59.7314 85.1277 57.6235 85.5281 57.4214C85.6859 57.3416 85.7504 57.0273 85.7691 56.674C85.7877 56.3377 85.7657 55.9674 85.7453 55.733C85.7334 55.5853 85.7215 55.4918 85.7215 55.4918C85.7215 55.4918 86.295 54.8854 87.0246 54.1636C88.3005 52.9015 90.0532 51.2828 90.0566 51.9266C90.0566 51.9605 90.0515 52.0013 90.0413 52.0489C89.7359 53.496 90.8642 56.5195 90.8642 56.5195Z" fill="#E7A585"/>
<path d="M90.5298 83.4857C90.5298 83.4857 90.8182 85.3066 90.8437 85.7822L91.4545 85.6599C91.4545 85.6599 91.2865 83.7337 91.1864 83.411L90.5298 83.4857Z" fill="#353A3D"/>
<path d="M80.6958 84.9191C80.6958 84.9191 80.4633 86.5752 80.4583 87.2003L81.1047 87.1154C81.1047 87.1154 81.237 85.0482 81.3117 84.8325L80.6958 84.9191Z" fill="#353A3D"/>
<path d="M89.3165 53.4753C89.3081 53.4872 89.1384 53.7437 88.8466 54.1089C88.2307 54.8851 87.0718 56.1608 85.7688 56.672C85.7874 56.3357 85.7654 55.9654 85.745 55.731C85.611 55.7276 85.4787 55.7123 85.3463 55.6835C85.7043 55.0584 86.2201 54.4028 86.2201 54.4028L87.026 54.1616L89.3165 53.4753Z" fill="#A4775F"/>
<path d="M90.0871 51.9536C89.7393 52.7094 89.4101 53.2581 89.3168 53.4755C89.2557 53.6165 89.0894 53.8475 88.8485 54.109C88.1868 54.8224 86.9567 55.7634 85.747 55.7312C85.6129 55.7278 85.4806 55.7125 85.3483 55.6836C84.8596 55.5766 84.2827 55.349 83.9655 54.7273C81.4595 49.8168 83.2732 45.8014 83.2732 45.8014C83.2732 45.8014 90.1227 43.8616 91.195 45.9271C91.9484 47.376 90.9032 50.1769 90.0871 51.9536Z" fill="#E7A585"/>
<path d="M83.2732 45.8014C83.2732 45.8014 82.6369 45.7658 82.4791 44.5581C82.3231 43.3657 82.6386 43.0345 82.6386 43.0345C82.6386 43.0345 85.467 41.8489 86.4816 41.696C87.4979 41.5414 89.9937 41.3937 90.5791 42.0646C90.5791 42.0646 92.0009 41.7334 92.3895 44.0978C93.0037 47.8482 90.2941 51.4882 90.2941 51.4882C90.2941 51.4882 90.3178 49.0389 89.7783 48.7145C89.2387 48.39 88.7721 49.1612 88.7721 49.1612L87.6676 49.3599C87.6676 49.3599 89.3439 45.7352 87.3333 45.601C85.3245 45.4668 84.4252 46.0121 83.2732 45.8014Z" fill="#434343"/>
<path d="M88.8041 48.1846C88.9093 47.1061 90.8588 46.6933 90.7281 47.8245C90.5975 48.9558 89.6371 50.0429 89.1943 50.0038C88.7498 49.9664 88.7243 49.0067 88.8041 48.1846Z" fill="#E7A585"/>
<path d="M102.335 75.7113C102.335 75.6893 102.335 75.6655 102.334 75.64C102.296 74.062 101.521 67.7434 100.213 63.5531C99.5781 61.5182 99.4322 60.0965 99.1862 59.9198C98.7603 59.6141 94.975 58.493 93.37 57.8629C93.3191 57.8425 93.2682 57.8221 93.2173 57.8034C93.0713 57.7457 92.9271 57.6896 92.788 57.6353C92.7184 57.6081 92.6489 57.5826 92.581 57.5554C92.5437 57.5419 92.5063 57.5283 92.4707 57.513C92.4402 57.5011 92.4113 57.4909 92.3808 57.479C92.3791 57.4807 92.3757 57.4841 92.3723 57.4875C92.2298 57.6472 91.4866 58.493 90.5993 59.7551C88.9416 62.1161 86.78 65.9395 87.1109 69.4691C87.2161 70.6021 87.3484 72.2293 87.569 74.0553C87.5877 74.2115 87.608 74.3678 87.6284 74.5275C87.681 74.947 87.7404 75.3767 87.8048 75.8116C87.8439 76.0714 87.8829 76.3347 87.9253 76.5997C88.3647 79.3361 89.7408 81.2028 90.9624 83.4347C90.9725 83.4534 90.9827 83.4721 90.9946 83.4907C90.9997 83.5009 91.0065 83.5128 91.0116 83.523C91.037 83.5706 91.0642 83.6181 91.0896 83.6657C91.132 83.7438 91.1728 83.822 91.2152 83.9018C91.2389 83.9477 91.2627 83.9918 91.2864 84.0377C91.5206 84.4861 91.7496 84.9464 91.9719 85.4084C92.1161 85.7057 92.2569 86.0046 92.3944 86.3036C92.4079 86.3341 92.4232 86.3647 92.4368 86.397C92.4368 86.397 92.6624 86.9201 92.9509 87.5928C93.0561 87.8391 93.1714 88.1057 93.2868 88.3741C93.3666 88.5576 93.4446 88.7427 93.521 88.9227C93.5888 89.079 93.6533 89.2336 93.7161 89.378C93.8552 89.7024 93.9757 89.986 94.0605 90.1831C94.1233 90.3308 94.1657 90.4311 94.1793 90.465C94.6001 91.5181 94.9038 92.3318 95.0429 92.7105C95.0989 92.8634 95.1277 92.9466 95.1277 92.9466L99.3559 90.6111C100.158 90.2086 99.7393 88.0429 99.4373 87.197C99.1862 86.4938 98.8333 85.7396 98.4363 84.96C98.2734 84.6407 98.1037 84.318 97.9289 83.9935C99.2524 81.6801 100.591 79.2936 101.441 77.6715C101.992 76.6235 102.335 75.8948 102.335 75.7113ZM95.6147 69.0887C95.6164 69.0836 95.6181 69.0785 95.6181 69.0734C95.6198 69.0666 95.6215 69.0598 95.6232 69.0547C95.6265 69.0445 95.6282 69.0343 95.6316 69.0241C95.6333 69.019 95.635 69.0139 95.635 69.0088C95.635 69.0071 95.635 69.0054 95.6367 69.0054C95.6367 69.0037 95.6384 69.002 95.6384 69.0003C95.6384 69.0003 97.6948 72.2191 97.5404 75.0132C97.5167 75.4481 97.084 76.5487 96.4545 77.9568C96.4545 77.9585 96.4545 77.9585 96.4528 77.9602C96.2238 78.4732 95.9693 79.0286 95.6978 79.6078C95.6876 79.5841 95.6774 79.5586 95.6673 79.5348C95.2736 78.5734 95.0174 77.6715 95.0174 76.8851C95.0191 76.8851 95.1922 70.7516 95.6147 69.0887Z" fill="#3865A7"/>
<path d="M63.5696 71.0488L73.1422 73.1363L77.7046 61.1903C77.8047 61.1105 79.1146 60.4056 79.9799 59.9929C80.8808 59.5631 82.0227 59.0332 83.0356 58.5644C83.5191 58.3402 83.9739 58.1312 84.359 57.9546L84.3912 57.9801C84.3912 57.9801 83.8262 59.8638 83.095 64.5654V64.5671C83.0695 64.7251 83.0458 64.8864 83.0203 65.0495C83.0186 65.0682 83.0152 65.0885 83.0118 65.1072C82.9949 65.2159 82.9779 65.3263 82.9626 65.4384C82.9609 65.452 82.9592 65.4656 82.9558 65.4775C82.944 65.5523 82.9338 65.6287 82.9236 65.7051C82.8965 65.8903 82.8693 66.0805 82.8405 66.2724C82.5147 68.5604 82.0566 72.4552 81.6172 76.3874V76.3891C81.2693 79.4872 80.4787 82.6686 80.2259 85.0415C80.2259 85.0432 80.2259 85.0449 80.2259 85.0466C80.1767 85.512 80.0579 86.132 79.8967 86.8301C79.8781 86.91 79.8594 86.9898 79.8407 87.0713C79.1332 90.0659 77.7572 94.3072 77.7572 94.3072L77.3568 93.9369L76.1708 92.8413C75.8976 92.5899 75.7941 92.2027 75.9044 91.8477C76.5627 89.7228 78.7973 82.2049 79.2079 76.919C79.2079 76.9173 79.2079 76.9156 79.2079 76.9139C79.3368 75.2527 78.8516 73.6884 78.5699 72.2055C78.5648 72.2191 78.5597 72.231 78.5563 72.2446C78.3205 72.9002 78.0609 73.6119 77.7979 74.3066C77.0921 76.17 76.371 77.8957 76.069 78.0061C75.4005 78.2524 62.7959 74.8026 62.7076 74.3066L63.5696 71.0488Z" fill="#3865A7"/>
<path d="M91.2697 62.6324L89.3168 63.7348L90.1516 64.5875L87.9289 76.5997C87.4759 73.7835 87.2689 71.11 87.1162 69.4708C86.6055 64.0134 92.0468 57.8561 92.3844 57.479C92.6457 57.5792 92.9273 57.6879 93.2192 57.8034L91.2697 62.6324Z" fill="#4D6C9E"/>
<path d="M84.4217 57.9257C84.4217 57.9257 83.6921 60.3121 82.8404 66.269C82.5146 68.5569 82.0565 72.4517 81.6171 76.3839L81.1624 65.1326L82.0938 64.1237L81.2658 63.0893L83.0355 58.5643C83.519 58.3401 83.9738 58.1312 84.3589 57.9545L84.4217 57.9257Z" fill="#4D6C9E"/>
<path d="M92.4824 57.5027L90.8621 56.5176C90.8621 56.5176 90.8162 57.4076 86.8053 59.7296L87.9438 62.9415L92.4824 57.5027Z" fill="#F3E1D8"/>
<path d="M85.7401 56.9661C85.7401 56.9661 85.8029 57.9257 86.8073 59.7296L84.5846 62.6307L84.4218 57.924L85.7401 56.9661Z" fill="#F3E1D8"/>
<path d="M86.8125 59.7313C86.8125 59.7313 87.2435 61.4571 87.0874 61.9394C87.0874 61.9394 86.1407 62.2843 85.4586 61.8528C85.4603 61.8528 85.9422 60.6451 86.8125 59.7313Z" fill="#FE5F5F"/>
<path d="M84.5848 84.6152C84.3439 83.3973 84.5729 79.7505 84.5831 79.5959L84.7901 79.6095C84.7884 79.6469 84.5526 83.3854 84.7884 84.5761L84.5848 84.6152Z" fill="#AD9F99"/>
<path d="M86.2727 84.0547C86.2727 84.0547 84.3283 84.2874 83.6853 84.4471L83.7701 86.6297L86.3169 86.3579L86.2727 84.0547Z" fill="#68737A"/>
<path d="M85.8468 61.6982C85.8468 61.6982 83.6785 67.1812 84.0314 73.3181C84.3979 79.6809 85.0002 81.9875 85.0002 81.9875L86.3372 83.6657L86.9276 81.6019C86.9276 81.6019 85.1325 73.4896 86.2914 65.5964C86.5018 64.1662 86.8122 61.4553 86.8122 61.4553L85.8468 61.6982Z" fill="#FE5F5F"/>
<path d="M92.3639 87.5911C92.3639 87.5911 91.899 88.5236 91.4324 88.6782C90.9675 88.8327 90.2888 89.5903 90.2888 89.5903L93.5651 91.3177C93.5651 91.3177 94.4372 89.609 94.4762 88.5219C94.5153 87.4365 92.3639 87.5911 92.3639 87.5911Z" fill="#E7A585"/>
<path d="M92.0518 87.6794L91.8346 88.116C91.8346 88.116 93.9164 89.6396 94.4763 89.7364L94.6681 89.1538L92.0518 87.6794Z" fill="#DDCAC3"/>
<path d="M91.8346 87.6981C91.8346 87.6981 93.3938 88.989 94.7088 89.5852L99.1286 81.6257L96.8381 77.1925C96.8381 77.1925 91.9381 86.9219 91.8346 87.6981Z" fill="#597EB8"/>
<path d="M78.6326 69.4216C78.5596 70.8943 78.5715 72.2022 78.5715 72.2022C78.5715 72.2022 78.5715 72.2022 78.5715 72.2039C78.5715 72.2107 78.5698 72.2514 78.5664 72.316C78.563 72.2905 78.5596 72.2667 78.5579 72.2412C78.3221 72.8969 78.0625 73.6086 77.7995 74.3033C77.7384 73.4999 77.7231 72.7508 77.7401 72.0561C77.8453 67.9269 79.1433 65.7629 79.1433 65.7629C78.843 66.4831 78.7004 68.0271 78.6326 69.4216Z" fill="#2F4261"/>
<path d="M98.4381 84.9616L94.8988 89.2403L97.9308 83.9951C98.1055 84.3195 98.2752 84.644 98.4381 84.9616Z" fill="#2F4261"/>
<path d="M72.7401 79.5977H64.5706C64.0107 79.5977 63.5237 79.2138 63.3914 78.6686L59.8419 63.9998C59.657 63.2355 60.2355 62.5 61.0211 62.5H69.1906C69.7505 62.5 70.2375 62.8839 70.3698 63.4291L73.9193 78.0979C74.1042 78.8622 73.5256 79.5977 72.7401 79.5977Z" fill="#313555"/>
<path d="M62.7467 75.5195C63.1471 75.1493 63.9174 74.9335 64.5774 74.4919C65.2374 74.0503 64.686 73.5951 64.686 73.5951C65.3646 73.3624 65.2917 73.0515 65.2052 72.8409C65.0881 72.5556 64.3466 72.6371 64.3466 72.6371C64.3466 72.6371 65.0117 72.4893 65.2849 72.3687C65.5581 72.2481 65.4647 71.7708 65.0457 71.6196C64.6249 71.4685 62.9112 71.8914 62.9112 71.8914C62.9112 71.8914 63.1912 71.7538 64.0361 71.3292C64.8811 70.9045 65.066 70.519 64.5689 70.3338C64.2228 70.2047 63.5424 70.4748 62.236 71.353C61.2519 72.0154 61.3316 72.1003 61.3316 72.1003C61.3316 72.1003 62.2699 75.9629 62.7467 75.5195Z" fill="#E7A585"/>
<path d="M97.9785 135.19C97.9785 135.19 96.0324 137.928 96.2988 138.361C96.5652 138.794 98.6131 138.857 99.8584 138.361C101.105 137.865 101.134 134.656 101.698 133.277C101.933 132.7 101.428 130.996 100.719 130.872C100.008 130.748 99.2357 131.112 99.2357 131.112C99.2357 131.112 99.9738 133.055 97.9785 135.19Z" fill="#FE5F5F"/>
<path d="M99.2238 131.091C99.2238 131.091 98.8149 132.257 98.6639 133.371C98.54 134.295 97.2777 136.255 97.3371 136.503C97.3964 136.751 98.9981 136.975 99.6513 136.337C100.305 135.698 100.724 133.838 100.868 132.725C101.002 131.689 101.17 131.178 101.17 131.178C101.17 131.178 99.8464 130.409 99.2238 131.091Z" fill="#E7A585"/>
<path d="M114.923 135.234C114.923 135.234 113.046 137.926 113.313 138.361C113.579 138.794 115.627 138.857 116.872 138.361C118.118 137.865 118.148 134.657 118.712 133.277C118.947 132.7 118.442 130.996 117.733 130.872C117.023 130.748 116.19 131.137 116.19 131.137C116.19 131.137 116.918 133.101 114.923 135.234Z" fill="#FE5F5F"/>
<path d="M116.192 131.139C116.192 131.139 116.045 132.409 115.807 133.308C115.57 134.206 114.294 136.253 114.353 136.501C114.413 136.749 116.014 136.973 116.667 136.335C117.321 135.696 117.825 133.845 117.884 132.724C117.943 131.603 117.736 130.872 117.736 130.872C117.736 130.872 116.815 130.458 116.192 131.139Z" fill="#E7A585"/>
<path d="M106.815 86.5653C106.815 86.5653 105.144 94.6844 104.76 96.7278C104.377 98.7711 103.303 108.672 103.187 110.355C103.072 112.039 101.445 118.381 101.521 118.982C101.597 119.584 99.1068 131.66 99.1068 131.66C99.1068 131.66 99.9568 132.375 100.854 131.725C101.316 131.39 106.319 120.419 106.319 117.413C106.319 113.258 109.261 107.833 109.64 106.904C113.165 98.2684 112.472 95.6271 112.931 95.0666C113.391 94.506 113.432 95.4131 113.7 96.6564C113.968 97.8981 114.543 108.64 114.889 110.004C115.235 111.366 114.966 115.976 115.159 118.301C115.351 120.626 116.192 131.141 116.192 131.141C116.192 131.141 116.846 132.209 117.76 131.168C117.957 130.944 119.34 119.454 119.379 116.689C119.418 113.924 119.458 110.109 119.531 108.913C120.242 97.453 121.99 95.8156 119.238 87.705C114.085 72.5182 106.815 86.5653 106.815 86.5653Z" fill="#E7A585"/>
<path d="M118.033 84.2959C118.033 84.2959 122.793 91.2549 120.743 106.056C120.743 106.056 109.455 107.66 103.406 104.201C103.406 104.201 105.907 88.9397 106.813 86.5651C107.721 84.1906 118.033 84.2959 118.033 84.2959Z" fill="#FE5F5F"/>
<path d="M101.75 133.036V135.903H101.395V133.688L101.75 133.036Z" fill="#FE5F5F"/>
<path d="M118.766 133.036V135.903H118.41V133.688L118.766 133.036Z" fill="#FE5F5F"/>
<path d="M112.39 53.4417C112.39 53.4417 109.202 56.6554 110.288 60.7948C111.374 64.9342 113.118 64.9563 115.04 63.1762C116.963 61.3961 118.094 59.5226 118.349 57.4418C118.603 55.3611 115.302 50.5746 112.39 53.4417Z" fill="#E7A585"/>
<path d="M111.767 67.2459C111.767 67.2459 112.239 66.164 112.571 64.9444C112.629 64.7287 112.683 64.5096 112.729 64.2921C112.892 63.5261 112.958 62.7702 112.784 62.2522C112.276 60.7489 115.972 61.7902 115.972 61.7902C115.972 61.7902 115.256 65.7665 115.972 67.1084C116.688 68.4485 111.767 67.2459 111.767 67.2459Z" fill="#E7A585"/>
<path d="M121.133 69.1396C120.551 67.9778 120.117 67.6024 118.992 67.2474C118.362 67.0487 115.552 66.3166 115.552 66.3166L112.176 66.1926C112.176 66.1926 109.853 66.5799 108.053 67.205C106.251 67.83 103.891 71.2458 103.891 71.2458C103.891 71.2458 107.147 78.8995 107.771 81.0958C108.394 83.292 107.98 86.6908 107.98 86.6908C111.884 88.8174 118.143 86.4836 118.143 86.4836C117.668 84.7681 117.65 82.7638 117.899 81.3421C117.928 81.1739 117.962 81.0142 117.997 80.8648C118.031 80.7272 118.077 80.5319 118.131 80.3127C118.133 80.3026 118.137 80.2924 118.138 80.2839C120.62 80.5386 122.948 80.6423 123.009 80.1429C123.283 77.8974 121.934 70.738 121.133 69.1396ZM119.412 77.8668C119.312 77.8515 119.1 77.8498 118.875 77.8311C119.149 77.0617 119.457 76.3789 119.457 76.3789C119.635 76.8698 120.303 77.9993 119.412 77.8668Z" fill="#EBD9D2"/>
<path d="M113.43 55.7534C113.43 55.7534 114.954 58.5288 115.902 59.5225C116.849 60.5161 116.739 61.306 116.739 61.306C116.739 61.306 120.429 56.747 117.797 53.9954C115.164 51.2437 111.769 52.3529 110.776 54.758C109.784 57.1632 110.147 60.1 110.147 60.1C110.147 60.1 110.174 57.2804 113.43 55.7534Z" fill="#D28853"/>
<path d="M114.436 52.8488C114.436 52.8488 114.068 50.8173 117.249 50.0105C120.431 49.202 121.861 52.8726 121.469 55.1113C121.077 57.35 118.357 63.0283 119.832 63.7671C121.308 64.506 121.883 62.9128 121.883 62.9128C121.883 62.9128 121.421 65.7052 119.37 65.0597C117.319 64.4143 117.595 59.874 117.904 58.0668C118.215 56.2561 114.436 52.8488 114.436 52.8488Z" fill="#D28853"/>
<path d="M115.461 62.7736C115.449 62.8024 114.645 64.6556 112.572 64.9443C112.629 64.7286 112.684 64.5095 112.73 64.2921C112.73 64.2921 113.866 64.5214 115.461 62.7736Z" fill="#A4775F"/>
<path d="M119.413 76.4045C119.413 76.4045 119.26 76.7255 118.844 77.9875C118.42 74.4392 118.642 72.5929 118.642 72.5929C118.688 74.4902 119.413 76.4045 119.413 76.4045Z" fill="#CFBDB7"/>
<path d="M114.932 52.4226C114.932 52.4226 117.19 52.8574 118.317 54.6987C118.317 54.6987 118.088 53.0307 116.964 52.55C115.839 52.0693 114.932 52.4226 114.932 52.4226Z" fill="#EBD9D2"/>
<path d="M118.13 80.3128C118.076 80.5319 118.03 80.7273 117.996 80.8648C117.959 81.0143 117.926 81.174 117.898 81.3421C116.5 80.5812 115.495 79.985 115.495 79.985C115.87 80.0699 118.13 80.3128 118.13 80.3128Z" fill="#CFBDB7"/>
<path d="M115.741 66.366L111.767 69.6085L112.176 66.1927C112.176 66.1927 114.494 65.6916 115.741 66.366Z" fill="#E7A585"/>
<path d="M112.916 69.0583L111.767 69.6087L115.67 65.736L112.916 69.0583Z" fill="#D5C4BD"/>
<path d="M118.364 80.0325C117.817 82.3018 119.84 87.4094 119.84 87.4094L115.829 88.6646C115.252 88.8446 114.645 88.4913 114.517 87.8986C113.98 85.4 112.721 79.2478 112.571 75.8286C112.38 71.465 115.552 66.3167 115.552 66.3167C121.192 67.2848 119.647 75.8286 119.647 75.8286C119.647 75.8286 119.441 76.367 119.168 77.2078C119.098 77.4184 119.026 77.6494 118.951 77.8957C118.757 78.5259 118.55 79.2597 118.364 80.0325Z" fill="#7099D8"/>
<path d="M111.778 66.3795L111.847 66.1926C111.847 66.1926 108.959 66.6326 107.49 67.3663C106.022 68.1001 103.211 71.893 103.211 71.893L106.886 76.7509C106.891 80.4843 106.285 87.1222 106.285 87.1222L107.967 88.0921C108.418 88.352 108.985 88.0327 108.993 87.5112C109.041 84.9872 109.155 78.993 109.214 76.0884C109.29 72.355 111.952 66.3149 111.952 66.3149C111.893 66.337 111.835 66.3574 111.778 66.3795Z" fill="#7099D8"/>
<path d="M106.54 83.8849C106.54 83.8849 109.312 83.9936 109.743 83.8849C110.174 83.7762 113.05 82.5278 113.223 81.2946C113.396 80.0615 106.54 82.4004 106.54 82.4004V83.8849Z" fill="#E7A585"/>
<path d="M115.138 80.0326L103.891 78.7145L108.973 82.8522L115.138 80.0326Z" fill="#B5A5A0"/>
<path d="M108.973 82.8522L115.139 80.7494V80.0326L108.764 82.0794L108.973 82.8522Z" fill="#EBD9D2"/>
<path d="M111.872 77.9639C111.872 77.9639 110.943 77.9639 110.422 77.8586C110.018 77.777 109.017 77.8891 108.761 78.1167C108.505 78.3426 107.694 79.9223 107.539 80.0174C107.386 80.1142 107.617 80.3367 107.887 80.2246C107.887 80.2246 108.135 80.9159 108.745 80.6561C109.356 80.3979 109.772 79.8323 110.091 79.7338C110.412 79.6335 112.275 79.1325 112.275 79.1325C112.275 79.1325 112.351 77.7957 111.872 77.9639Z" fill="#E7A585"/>
<path d="M112.389 65.5627L110.247 68.9565L109.214 69.6087L111.623 66.2286L112.389 65.5627Z" fill="#F8E5DD"/>
<path d="M110.247 68.9565L111.767 69.6087L112.176 66.1929L112.388 65.5627L110.247 68.9565Z" fill="#D5C4BD"/>
<path d="M106.877 82.2986C106.877 82.2986 106.762 83.7322 106.877 84.0329C106.877 84.0329 99.9413 83.3398 99.2949 82.3683C98.6484 81.3967 98.6705 80.2179 98.6705 80.2179L106.877 82.2986Z" fill="#F09E4A"/>
<path d="M108.973 82.8522L105.693 70.6446L93.2209 69.3265L96.6397 80.5642L108.973 82.8522Z" fill="#EBD9D2"/>
<path d="M115.67 65.736L112.916 69.0583L114.423 70.4036L116.05 66.4256L115.67 65.736Z" fill="#F8E5DD"/>
<path d="M119.26 76.9259L119.168 77.2079C119.099 77.4185 119.026 77.6495 118.951 77.8958C118.418 78.0639 113.812 77.7242 113.812 77.7242C113.812 77.7242 117.667 76.8189 119.26 76.9259Z" fill="#3865A7"/>
<path d="M118.995 77.806C118.254 77.7499 117.037 77.6701 116.043 77.6667C114.496 77.6599 111.847 77.8331 111.847 77.8331L112.163 79.4892C112.163 79.4892 116.852 80.2519 119.414 80.4319C119.414 80.4319 122.794 80.8209 123.045 80.3164C123.296 79.812 122.962 76.5694 122.412 73.6496C121.863 70.7281 121.298 69.0465 120.626 68.1446C119.954 67.2426 116.403 66.5394 116.403 66.5394L119.414 76.4081C119.414 76.4081 119.847 77.2879 119.823 77.6684C119.817 77.7839 119.737 77.8382 119.628 77.8586C119.552 77.8518 119.386 77.8382 119.157 77.8196L118.995 77.806Z" fill="#7099D8"/>
</svg>
