<svg width="46" height="33" viewBox="0 0 46 33" fill="none" xmlns="http://www.w3.org/2000/svg">
<path d="M0.0317339 25.3273L7.11826 32.4185L14.2048 25.3273L7.11826 18.2361L0.0317339 25.3273Z" fill="#FE5F5F"/>
<path d="M8.92493 16.4626L16.0115 23.5537L23.0981 16.4626L16.0115 9.37155L8.92493 16.4626Z" fill="#FE5F5F"/>
<path d="M-7.36332e-06 7.50989L7.08649 14.6011L14.173 7.50989L7.08649 0.418706L-7.36332e-06 7.50989Z" fill="#FE5F5F"/>
<path d="M22.6081 25.3273L29.6946 32.4185L36.7811 25.3273L29.6946 18.2361L22.6081 25.3273Z" fill="#FE5F5F"/>
<path d="M31.5013 16.4626L38.5879 23.5537L45.6745 16.4626L38.5879 9.37155L31.5013 16.4626Z" fill="#FE5F5F"/>
<path d="M22.5762 7.50989L29.6627 14.6011L36.7492 7.50989L29.6627 0.418706L22.5762 7.50989Z" fill="#FE5F5F"/>
</svg>
